<svg xmlns="http://www.w3.org/2000/svg" xmlns:xlink="http://www.w3.org/1999/xlink" xmlns:lucid="lucid" width="1284" height="965.67"><g transform="translate(-380 -60)" lucid:page-tab-id="QUuz8d0OgHnu"><path d="M804 684.5c0-1.1.9-2 2-2h836c1.1 0 2 .9 2 2v319.17c0 1.1-.9 2-2 2H806c-1.1 0-2-.9-2-2z" fill="#f6f6f6"/><path d="M855.72 710.6c.02-2.28.85-4.22 2.48-5.8 1.64-1.6 3.6-2.4 5.87-2.38 1.06-.02 2.07.17 3.03.56.97.4 1.84.95 2.58 1.7l-1.63 1.56c-1.13-1.08-2.44-1.6-3.98-1.6-1.06 0-2.07.27-3 .8-.9.54-1.63 1.28-2.15 2.2-.53.93-.76 1.93-.74 3-.02 1.05.2 2.04.74 2.97.53.94 1.24 1.67 2.16 2.2.92.55 1.93.8 3 .8.77.05 1.5-.08 2.22-.37.7-.28 1.33-.7 1.88-1.25.74-.8 1.16-1.74 1.22-2.82h-5.33v-2.3h7.47c.1.45.14.92.14 1.4.07 2-.6 3.73-1.95 5.2-.74.78-1.6 1.37-2.58 1.77-1 .4-2.02.58-3.08.54-2.28 0-4.23-.78-5.87-2.38-1.63-1.6-2.46-3.54-2.48-5.8zm0 0M877.75 708.23c-1.45 0-2.7.52-3.72 1.55-1.04 1.03-1.54 2.27-1.54 3.73s.5 2.7 1.55 3.73c1.04 1.03 2.28 1.54 3.73 1.54 1.45 0 2.7-.52 3.72-1.55 1.04-1.02 1.54-2.26 1.54-3.72.03-.95-.2-1.83-.66-2.65-.46-.83-1.13-1.47-1.96-1.94-.83-.46-1.72-.68-2.67-.67zm0 8.45c-.55 0-1.06-.16-1.54-.45-.47-.3-.84-.68-1.1-1.17-.25-.5-.36-1-.34-1.57 0-.84.3-1.54.88-2.13.57-.58 1.28-.87 2.1-.87.84 0 1.58.3 2.15.87.57.6.87 1.3.87 2.12.02.55-.1 1.07-.35 1.57-.25.5-.62.88-1.1 1.17-.5.3-1 .45-1.57.45zM889.32 708.23c-1.45 0-2.7.53-3.72 1.56-1.04 1.02-1.54 2.26-1.54 3.7 0 1.47.52 2.7 1.56 3.73 1.03 1.03 2.28 1.54 3.73 1.54 1.44 0 2.7-.52 3.72-1.55 1.04-1.02 1.54-2.27 1.54-3.72.03-.95-.2-1.83-.68-2.66-.48-.82-1.1-1.47-1.93-1.93-.84-.46-1.74-.68-2.68-.67zm0 8.45c-.55 0-1.08-.16-1.56-.45-.5-.3-.83-.68-1.08-1.17-.26-.5-.4-1-.37-1.57 0-.84.33-1.54.9-2.13.58-.58 1.3-.87 2.12-.87.83 0 1.54.3 2.12.87.57.6.87 1.3.87 2.12.04.55-.08 1.07-.33 1.57-.26.5-.62.88-1.1 1.17-.5.3-1 .45-1.55.45zM903.5 708.55v.86h-.08c-.37-.38-.78-.67-1.26-.88-.5-.2-1-.3-1.52-.3-1.4.08-2.62.62-3.6 1.63-.96 1.02-1.46 2.24-1.46 3.65 0 1.4.5 2.62 1.47 3.64s2.2 1.56 3.6 1.62c.52 0 1.02-.08 1.5-.3.5-.2.93-.5 1.27-.9h.07v.76c0 2-1.1 3.1-2.84 3.1-.57-.03-1.1-.2-1.6-.55-.47-.34-.8-.78-1.02-1.32l-2 .83c.4.95 1 1.7 1.86 2.28.85.57 1.8.85 2.83.84 2.7 0 5-1.6 5-5.5v-9.45h-2.22zm-2.68 8.14c-.55-.02-1.06-.17-1.52-.46-.46-.3-.82-.68-1.08-1.16-.25-.5-.34-1-.32-1.56-.02-.55.07-1.07.32-1.56.26-.5.62-.9 1.08-1.18.46-.3.97-.45 1.52-.47.55.04 1.04.2 1.5.5.46.3.8.7 1.03 1.18.23.5.35 1 .3 1.54.02.54-.07 1.04-.3 1.52-.23.48-.6.87-1.03 1.16-.44.3-.97.46-1.5.5zm0 0M907.3 702.98h2.3v15.47h-2.32zM915.96 716.7c-.56.02-1.06-.12-1.52-.4-.46-.3-.8-.7-1.04-1.2l7.06-2.92-.25-.6c-.3-.97-.9-1.77-1.7-2.38-.84-.62-1.76-.94-2.8-.97-.92 0-1.8.24-2.6.72-.8.47-1.4 1.12-1.84 1.94-.43.8-.62 1.68-.57 2.6-.03.94.2 1.83.66 2.65.46.82 1.1 1.47 1.93 1.94.82.46 1.7.68 2.63.67.88 0 1.73-.2 2.5-.62.8-.4 1.4-.98 1.9-1.72l-1.8-1.2c-.27.46-.64.8-1.1 1.07-.46.26-.94.4-1.47.4zm-.2-6.43c.43-.04.82.04 1.18.24.37.22.65.5.83.9l-4.7 1.98c-.06-.52.03-1.02.26-1.5.23-.46.56-.84 1-1.13.43-.3.9-.45 1.44-.48zm0 0M925.04 711.3c-.02-1.33.28-2.6.94-3.75.67-1.17 1.57-2.08 2.74-2.75 1.17-.66 2.42-.98 3.75-.96 1-.02 1.98.18 2.9.6.92.4 1.7.98 2.37 1.74l-1.3 1.24c-.47-.6-1.07-1.07-1.8-1.4-.7-.3-1.4-.46-2.2-.42-1-.02-1.97.22-2.85.73-.88.5-1.57 1.22-2.05 2.1-.48.9-.7 1.86-.67 2.88-.04 1 .2 1.96.7 2.84.47.9 1.14 1.58 2 2.1.9.5 1.83.74 2.84.72.86 0 1.66-.17 2.42-.52.76-.34 1.42-.84 1.98-1.47l1.28 1.27c-1.03 1.16-2.27 1.93-3.8 2.3-1.5.37-2.98.28-4.43-.26-1.45-.55-2.64-1.46-3.52-2.74-.87-1.27-1.3-2.68-1.3-4.23zm0 0M939.55 718.45v-14.3h1.84v14.3zM952.83 713.56c0 1.4-.5 2.57-1.48 3.55-1 1-2.18 1.48-3.56 1.48-1.4 0-2.56-.5-3.55-1.47-1-.97-1.48-2.15-1.48-3.54 0-1.4.5-2.57 1.48-3.55 1-.97 2.16-1.46 3.54-1.46 1.37 0 2.56.5 3.55 1.47 1 1 1.48 2.17 1.48 3.56zm-1.85 0c.07-.73-.1-1.4-.5-2-.4-.62-.97-1.04-1.66-1.28-.7-.24-1.38-.24-2.07 0-.7.24-1.24.66-1.63 1.27-.4.6-.6 1.28-.53 2 0 .9.3 1.65.93 2.28.63.63 1.38.94 2.28.94.9 0 1.67-.3 2.3-.94.6-.63.93-1.38.93-2.27zM961.13 718.45v-1.36H961c-.33.5-.77.92-1.32 1.22-.55.3-1.15.45-1.77.45-2.52 0-3.72-1.7-3.72-4.1v-6h1.84v5.7c0 1.98 1 2.72 2.42 2.72.76-.07 1.4-.4 1.9-.98s.72-1.26.67-2.02v-5.4h1.85v9.78h-1.75zM964.37 713.56c-.07-1.35.37-2.53 1.27-3.55.9-1 2.02-1.55 3.38-1.65.66-.02 1.3.12 1.88.42.6.3 1.08.72 1.45 1.26h.07l-.07-1.36v-4.5h1.84v14.28h-1.78v-1.36h-.07c-.37.53-.85.96-1.45 1.25-.6.3-1.22.44-1.88.42-1.36-.1-2.5-.65-3.38-1.66-.9-1-1.34-2.2-1.27-3.54zm8.07 0c.1-.73-.07-1.4-.46-2.02-.4-.62-.92-1.05-1.6-1.3-.7-.23-1.4-.23-2.08 0-.7.25-1.24.68-1.63 1.3-.4.62-.55 1.3-.46 2.02-.08.73.08 1.4.47 2.02.4.62.94 1.05 1.63 1.3.7.23 1.38.23 2.07 0 .7-.25 1.22-.68 1.6-1.3.4-.62.57-1.3.47-2.02zM979.23 718.45v-14.3h4.88c.8 0 1.52.16 2.2.53.7.38 1.23.9 1.65 1.56.4.67.6 1.4.62 2.17-.03.8-.2 1.52-.62 2.18-.42.67-.95 1.2-1.64 1.56-.68.38-1.4.55-2.2.52h-3v5.8h-1.85zm4.9-7.54c.7 0 1.3-.24 1.77-.72.48-.5.74-1.08.74-1.77 0-.67-.26-1.26-.74-1.75-.48-.5-1.08-.73-1.77-.73H981v5h3.08zM989.86 718.45v-14.3h1.84v14.3zM993.28 715.5c0-2.22 2-3.42 4.3-3.42.95-.02 1.84.18 2.67.6v-.28c-.05-.58-.25-1.1-.64-1.53-.38-.44-.84-.72-1.42-.84-.57-.1-1.13-.04-1.65.2-.53.27-.92.65-1.18 1.18l-1.68-.7c.46-.9 1.15-1.56 2.05-1.98.9-.42 1.84-.52 2.83-.3 1 .2 1.8.7 2.44 1.47.63.76.95 1.64 1 2.64v5.9h-1.75v-1.35h-.1c-.34.53-.8.96-1.37 1.25-.58.3-1.2.44-1.84.42-.62.06-1.2-.05-1.77-.33-.58-.28-1-.68-1.36-1.2-.33-.54-.52-1.12-.52-1.74zm7-1.26c-.72-.47-1.48-.68-2.33-.64-1.93 0-2.7 1-2.7 1.94.06.48.3.88.68 1.18.4.3.83.42 1.3.37.8 0 1.5-.28 2.08-.83.58-.56.9-1.23.95-2.03zM1004.64 715.48v-5.13h-1.72v-1.68h1.72v-3h1.84v3h2.4v1.68h-2.4v5c0 1.08.5 1.58 1.34 1.58.3 0 .55-.04.83-.16l.64 1.58c-.5.2-.98.28-1.48.26-.58.08-1.13-.02-1.66-.3-.53-.26-.92-.66-1.2-1.18-.27-.5-.38-1.06-.32-1.64zM1016.6 704.34l-.62 1.58c-.27-.12-.53-.18-.83-.16-.3-.02-.57.04-.85.2-.27.13-.48.34-.62.6-.13.28-.18.57-.16.88v1.23h2.46v1.68h-2.55v8.1h-1.84v-8.1h-1.85v-1.68h1.84v-1.3c-.03-.6.1-1.18.43-1.72.32-.53.76-.94 1.3-1.22.56-.28 1.13-.4 1.76-.35.5-.02 1.02.06 1.5.26zM1026.6 713.56c0 1.4-.47 2.57-1.46 3.55-1 1-2.2 1.48-3.57 1.48-1.38 0-2.57-.5-3.56-1.47-.98-.97-1.47-2.15-1.47-3.54 0-1.4.5-2.57 1.48-3.55 1-.97 2.2-1.46 3.57-1.46 1.38 0 2.58.5 3.57 1.47 1 1 1.47 2.17 1.47 3.56zm-1.83 0c.07-.73-.12-1.4-.5-2-.4-.62-.97-1.04-1.66-1.28-.68-.24-1.37-.24-2.06 0-.7.24-1.27.66-1.66 1.27-.4.6-.57 1.28-.5 2-.07.74.1 1.4.5 2.02.4.6.97 1.04 1.66 1.27.7.24 1.38.24 2.07 0 .7-.23 1.27-.66 1.66-1.27.4-.6.58-1.28.5-2zM1028.08 718.45v-9.78h1.77v1.6h.07c.25-.55.67-1 1.17-1.32.5-.33 1.08-.5 1.67-.52.5 0 .95.06 1.38.24l-.7 1.72c-.33-.12-.65-.17-1-.15-.48.02-.92.16-1.33.43-.42.26-.74.6-.95 1.04-.2.44-.32.9-.27 1.38v5.35zm0 0M1035.14 708.67h1.75v1.36h.08c.35-.5.78-.9 1.3-1.2.54-.3 1.12-.45 1.7-.48.68-.05 1.28.1 1.86.44.57.34.98.82 1.24 1.43.37-.6.87-1.05 1.47-1.38.6-.34 1.26-.5 1.95-.5 2.4 0 3.5 1.7 3.5 4.1v6h-1.84v-5.7c0-2-.78-2.72-2.2-2.72-1.4 0-2.47 1.5-2.47 3v5.4h-1.85v-5.7c0-1.98-.78-2.7-2.18-2.7-1.4 0-2.5 1.5-2.5 3v5.4h-1.85v-9.76z" fill="#737373"/><path d="M838.38 718.46l-2.88 5h-7.52c-.34 0-.64-.1-.94-.26-.3-.17-.53-.4-.7-.7l-6.06-10.6c-.16-.3-.26-.6-.26-.93 0-.33.1-.64.26-.93l2.3-4.05 2.85 4.98 4.32 7.48zm0 0" fill="#ffcc40"/><path d="M847.88 711.9l-6.1 10.6c-.16.3-.4.53-.7.7-.3.16-.6.25-.93.25h-4.65l2.88-5 4.32-7.47-4.32-7.5h5.68l3.77 6.57c.16.28.28.6.28.92 0 .33-.06.64-.22.93z" fill="#da4437"/><path d="M844.06 703.5h-14.3l-4.3 7.48-2.88-5 3.77-6.54c.16-.3.4-.52.7-.68.3-.17.6-.25.93-.25h12.17c.34 0 .64.1.94.26.3.16.52.4.68.68z" fill="#4284f3"/><path d="M838.38 703.5l4.32 7.48-4.32 7.48h-8.63l-4.3-7.48 4.3-7.5z" fill="#dfdfdf"/><path d="M830.33 710.98c0-2.07 1.68-3.74 3.75-3.74 2.07 0 3.75 1.67 3.75 3.74 0 2.06-1.68 3.74-3.75 3.74-2.07 0-3.75-1.68-3.75-3.74z" fill="#fff"/><path d="M826.35 699.6c.16-.3.4-.52.7-.68.3-.17.6-.25.93-.25h12.17c.34 0 .64.08.94.25.3.16.52.4.68.68l2.28 3.9-2.28-4.06c-.16-.3-.4-.52-.7-.68-.3-.17-.6-.25-.93-.25h-12.17c-.34 0-.64.1-.94.26-.3.16-.53.4-.7.68L822.6 706v.07z" fill="#fff" fill-opacity=".2"/><path d="M825.45 710.98l4.3-7.5h14.35l-.07-.14h-14.28l-4.3 7.48" fill="#1a237e" fill-opacity=".2"/><path d="M820.28 710.2l2.3-4 2.87 5 4.3 7.48h8.56l.08-.16h-8.63l-4.3-7.54-2.87-5-2.33 4c-.18.3-.25.64-.23 1 .03-.28.12-.54.26-.78zm0 0" fill="#fff" fill-opacity=".2"/><path d="M835.6 723.3h-7.62c-.34 0-.64-.1-.94-.26-.3-.17-.53-.4-.7-.7l-6.06-10.6c-.14-.25-.23-.53-.26-.83-.02.36.07.7.26 1l6.07 10.6c.16.3.4.53.7.7.3.16.6.25.93.25h7.52z" fill="#be360c"/><path d="M842.8 710.98l-4.33-7.5h-.1l4.33 7.5zM847.88 711.75l-6.1 10.6c-.16.3-.4.52-.7.7-.3.15-.6.24-.93.24h-4.56l-.1.15h4.65c.34 0 .64-.1.94-.25.3-.17.52-.4.68-.7l6.1-10.6c.18-.3.25-.63.23-.98-.02.3-.1.57-.22.83zm0 0" fill="#3e2723"/><path d="M844.06 703.65l3.77 6.56c.14.27.23.55.25.86.03-.36-.07-.7-.25-1l-3.77-6.57h-5.68l.1.15M838.38 718.62l4.4-7.64h-.08l-4.32 7.48-2.88 5h.1z" fill="#fff"/><path d="M847.88 710.05l-3.82-6.56-2.28-4.06c-.16-.3-.4-.52-.7-.68-.3-.17-.6-.25-.93-.25h-12.17c-.34 0-.64.1-.94.26-.3.16-.53.4-.7.68l-6.06 10.6c-.16.3-.26.6-.26.94 0 .33.1.64.26.93l6.07 10.6c.16.3.4.53.7.7.3.16.6.25.93.25h12.17c.34 0 .64-.1.94-.25.3-.17.52-.4.68-.7l6.1-10.6c.16-.28.25-.6.25-.92 0-.33-.1-.64-.25-.93z" fill="url(#a)"/><path d="M804 280.42c0-1.1.9-2 2-2h836c1.1 0 2 .9 2 2v319.16c0 1.1-.9 2-2 2H806c-1.1 0-2-.9-2-2z" fill="#f6f6f6"/><path d="M855.72 306.5c.02-2.27.85-4.2 2.48-5.8 1.64-1.6 3.6-2.38 5.87-2.37 1.06-.02 2.07.17 3.03.56.97.38 1.84.94 2.58 1.68l-1.63 1.57c-1.13-1.08-2.44-1.6-3.98-1.6-1.06 0-2.07.27-3 .8-.9.54-1.63 1.28-2.15 2.2-.53.93-.76 1.93-.74 3-.02 1.05.2 2.04.74 2.97.53.93 1.24 1.66 2.16 2.2.92.54 1.93.8 3 .8.77.04 1.5-.1 2.22-.38.7-.28 1.33-.7 1.88-1.25.74-.8 1.16-1.75 1.22-2.83h-5.33v-2.3h7.47c.1.45.14.92.14 1.4.07 2-.6 3.73-1.95 5.2-.74.78-1.6 1.37-2.58 1.77-1 .4-2.02.58-3.08.54-2.28 0-4.23-.78-5.87-2.38-1.63-1.6-2.46-3.53-2.48-5.8zm0 0M877.75 304.14c-1.45 0-2.7.52-3.72 1.55-1.04 1.02-1.54 2.26-1.54 3.72 0 1.45.5 2.7 1.55 3.72 1.04 1.03 2.28 1.54 3.73 1.54 1.45 0 2.7-.52 3.72-1.55 1.04-1.02 1.54-2.26 1.54-3.72.03-.94-.2-1.82-.66-2.64-.46-.83-1.13-1.47-1.96-1.94-.83-.47-1.72-.7-2.67-.68zm0 8.45c-.55 0-1.06-.17-1.54-.46-.47-.3-.84-.68-1.1-1.17-.25-.5-.36-1-.34-1.57 0-.83.3-1.53.88-2.12.57-.58 1.28-.87 2.1-.87.84 0 1.58.3 2.15.88.57.6.87 1.3.87 2.12.02.56-.1 1.08-.35 1.58-.25.5-.62.88-1.1 1.17-.5.3-1 .45-1.57.45zM889.32 304.14c-1.45 0-2.7.53-3.72 1.56-1.04 1.03-1.54 2.27-1.54 3.72 0 1.46.52 2.7 1.56 3.72 1.03 1.03 2.28 1.54 3.73 1.54 1.44 0 2.7-.52 3.72-1.55 1.04-1.02 1.54-2.27 1.54-3.72.03-.94-.2-1.82-.68-2.65-.48-.82-1.1-1.47-1.93-1.93-.84-.47-1.74-.7-2.68-.68zm0 8.45c-.55 0-1.08-.17-1.56-.46-.5-.3-.83-.68-1.08-1.17-.26-.5-.4-1-.37-1.57 0-.83.33-1.53.9-2.12.58-.58 1.3-.87 2.12-.87.83 0 1.54.3 2.12.88.57.6.87 1.3.87 2.12.04.56-.08 1.08-.33 1.58-.26.5-.62.88-1.1 1.17-.5.3-1 .45-1.55.45zM903.5 304.46v.86h-.08c-.37-.4-.78-.68-1.26-.9-.5-.2-1-.3-1.52-.28-1.4.07-2.62.6-3.6 1.62-.96 1.02-1.46 2.24-1.46 3.65 0 1.42.5 2.63 1.47 3.65s2.2 1.56 3.6 1.62c.52 0 1.02-.08 1.5-.3.5-.2.93-.5 1.27-.9h.07v.76c0 2-1.1 3.1-2.84 3.1-.57-.03-1.1-.2-1.6-.55-.47-.34-.8-.78-1.02-1.32l-2 .83c.4.94 1 1.7 1.86 2.27.85.57 1.8.85 2.83.84 2.7 0 5-1.6 5-5.48v-9.46h-2.22zm-2.68 8.14c-.55 0-1.06-.16-1.52-.45-.46-.3-.82-.68-1.08-1.16-.25-.5-.34-1.02-.32-1.57-.02-.55.07-1.07.32-1.56.26-.5.62-.9 1.08-1.18.46-.3.97-.46 1.52-.48.55.03 1.04.2 1.5.5.46.3.8.7 1.03 1.17.23.48.35 1 .3 1.53.02.54-.07 1.04-.3 1.52-.23.48-.6.87-1.03 1.16-.44.3-.97.47-1.5.5zm0 0M907.3 298.9h2.3v15.46h-2.32zM915.96 312.6c-.56.03-1.06-.1-1.52-.4-.46-.3-.8-.7-1.04-1.2l7.06-2.9-.25-.6c-.3-.98-.9-1.78-1.7-2.4-.84-.6-1.76-.93-2.8-.96-.92 0-1.8.24-2.6.72-.8.47-1.4 1.12-1.84 1.94-.43.82-.62 1.7-.57 2.6-.03.95.2 1.84.66 2.66.46.82 1.1 1.47 1.93 1.94.82.47 1.7.7 2.63.68.88 0 1.73-.2 2.5-.62.8-.4 1.4-.98 1.9-1.72l-1.8-1.2c-.27.46-.64.8-1.1 1.07-.46.27-.94.4-1.47.4zm-.2-6.42c.43-.04.82.04 1.18.24.37.2.65.5.83.88l-4.7 2c-.06-.53.03-1.03.26-1.5s.56-.85 1-1.14c.43-.3.9-.45 1.44-.48zm0 0M925.04 307.22c-.02-1.34.28-2.6.94-3.76.67-1.17 1.57-2.08 2.74-2.75 1.17-.65 2.42-.97 3.75-.95 1-.02 1.98.18 2.9.6.92.4 1.7.98 2.37 1.74l-1.3 1.23c-.47-.6-1.07-1.07-1.8-1.4-.7-.3-1.4-.46-2.2-.42-1 0-1.97.23-2.85.74-.88.5-1.57 1.22-2.05 2.1-.48.9-.7 1.86-.67 2.88-.04 1 .2 1.95.7 2.83.47.9 1.14 1.58 2 2.1.9.5 1.83.74 2.84.72.86 0 1.66-.17 2.42-.52.76-.34 1.42-.84 1.98-1.47l1.28 1.27c-1.03 1.16-2.27 1.93-3.8 2.3-1.5.37-2.98.28-4.43-.26-1.45-.56-2.64-1.47-3.52-2.75-.87-1.27-1.3-2.68-1.3-4.23zm0 0M939.55 314.36v-14.3h1.84v14.3zM952.83 309.47c0 1.4-.5 2.57-1.48 3.55-1 .98-2.18 1.47-3.56 1.47-1.4 0-2.56-.5-3.55-1.48-1-.98-1.48-2.16-1.48-3.55 0-1.4.5-2.57 1.48-3.55 1-.98 2.16-1.47 3.54-1.47 1.37 0 2.56.5 3.55 1.47 1 .98 1.48 2.16 1.48 3.55zm-1.85 0c.07-.73-.1-1.4-.5-2-.4-.62-.97-1.04-1.66-1.28-.7-.25-1.38-.25-2.07 0-.7.23-1.24.65-1.63 1.26-.4.6-.6 1.28-.53 2 0 .9.3 1.65.93 2.28.63.63 1.38.94 2.28.94.9 0 1.67-.3 2.3-.94.6-.63.93-1.38.93-2.27zM961.13 314.36V313H961c-.33.52-.77.93-1.32 1.23-.55.3-1.15.45-1.77.45-2.52 0-3.72-1.7-3.72-4.1v-6h1.84v5.7c0 1.98 1 2.72 2.42 2.72.76-.06 1.4-.4 1.9-.97.5-.58.72-1.26.67-2.02v-5.38h1.85v9.77h-1.75zM964.37 309.47c-.07-1.35.37-2.53 1.27-3.55.9-1 2.02-1.56 3.38-1.66.66-.02 1.3.12 1.88.42.6.3 1.08.72 1.45 1.26h.07l-.07-1.36v-4.5h1.84v14.28h-1.78V313h-.07c-.37.54-.85.97-1.45 1.26-.6.3-1.22.44-1.88.42-1.36-.1-2.5-.65-3.38-1.66-.9-1.02-1.34-2.2-1.27-3.55zm8.07 0c.1-.73-.07-1.4-.46-2.02-.4-.62-.92-1.05-1.6-1.3-.7-.23-1.4-.23-2.08 0-.7.25-1.24.68-1.63 1.3-.4.62-.55 1.3-.46 2.02-.08.73.08 1.4.47 2.02.4.6.94 1.04 1.63 1.28.7.24 1.38.24 2.07 0 .7-.24 1.22-.67 1.6-1.3.4-.6.57-1.28.47-2zM979.23 314.36v-14.3h4.88c.8 0 1.52.16 2.2.53.7.37 1.23.88 1.65 1.55.4.67.6 1.4.62 2.17-.03.78-.2 1.5-.62 2.17-.42.66-.95 1.18-1.64 1.55-.68.38-1.4.55-2.2.52h-3v5.8h-1.85zm4.9-7.54c.7 0 1.3-.25 1.77-.73.48-.5.74-1.1.74-1.78 0-.68-.26-1.27-.74-1.76-.48-.5-1.08-.73-1.77-.73H981v5h3.08zM989.86 314.36v-14.3h1.84v14.3zM993.28 311.4c0-2.2 2-3.4 4.3-3.4.95-.03 1.84.17 2.67.6v-.3c-.05-.57-.25-1.08-.64-1.52-.38-.44-.84-.72-1.42-.84-.57-.1-1.13-.04-1.65.2-.53.27-.92.65-1.18 1.18l-1.68-.72c.46-.9 1.15-1.55 2.05-1.97.9-.42 1.84-.52 2.83-.3 1 .2 1.8.7 2.44 1.47.63.77.95 1.65 1 2.65v5.9h-1.75V313h-.1c-.34.54-.8.97-1.37 1.26-.58.3-1.2.44-1.84.42-.62.06-1.2-.05-1.77-.33-.58-.28-1-.68-1.36-1.2-.33-.54-.52-1.12-.52-1.74zm7-1.25c-.72-.47-1.48-.68-2.33-.64-1.93 0-2.7 1-2.7 1.95.06.48.3.88.68 1.18.4.3.83.42 1.3.37.8 0 1.5-.27 2.08-.82.58-.56.9-1.23.95-2.03zM1004.64 311.4v-5.14h-1.72v-1.68h1.72v-3h1.84v3h2.4v1.68h-2.4v5c0 1.08.5 1.58 1.34 1.58.3 0 .55-.04.83-.16l.64 1.58c-.5.2-.98.28-1.48.26-.58.07-1.13-.03-1.66-.3s-.92-.67-1.2-1.2c-.27-.5-.38-1.05-.32-1.63zM1016.6 300.25l-.62 1.58c-.27-.12-.53-.18-.83-.16-.3-.02-.57.04-.85.2-.27.13-.48.34-.62.6-.13.28-.18.57-.16.88v1.23h2.46v1.68h-2.55v8.1h-1.84v-8.1h-1.85v-1.68h1.84v-1.3c-.03-.6.1-1.18.43-1.72.32-.53.76-.94 1.3-1.22.56-.28 1.13-.4 1.76-.35.5-.03 1.02.05 1.5.25zM1026.6 309.47c0 1.4-.47 2.57-1.46 3.55-1 .98-2.2 1.47-3.57 1.47-1.38 0-2.57-.5-3.56-1.48-.98-.98-1.47-2.16-1.47-3.55 0-1.4.5-2.57 1.48-3.55 1-.98 2.2-1.47 3.57-1.47 1.38 0 2.58.5 3.57 1.47 1 .98 1.47 2.16 1.47 3.55zm-1.83 0c.07-.73-.12-1.4-.5-2-.4-.62-.97-1.04-1.66-1.28-.68-.25-1.37-.25-2.06 0-.7.23-1.27.65-1.66 1.26-.4.6-.57 1.28-.5 2-.07.74.1 1.4.5 2.02.4.6.97 1.04 1.66 1.27.7.24 1.38.24 2.07 0 .7-.23 1.27-.66 1.66-1.27.4-.6.58-1.28.5-2zM1028.08 314.36v-9.78h1.77v1.6h.07c.25-.55.67-1 1.17-1.32.5-.33 1.08-.5 1.67-.52.5 0 .95.06 1.38.24l-.7 1.72c-.33-.1-.65-.16-1-.14-.48.02-.92.16-1.33.43-.42.25-.74.6-.95 1.03-.2.44-.32.9-.27 1.38v5.36zm0 0M1035.14 304.58h1.75v1.36h.08c.35-.5.78-.9 1.3-1.2.54-.3 1.12-.45 1.7-.48.68-.05 1.28.1 1.86.44.57.35.98.83 1.24 1.44.37-.6.87-1.05 1.47-1.38.6-.34 1.26-.5 1.95-.5 2.4 0 3.5 1.7 3.5 4.1v6h-1.84v-5.7c0-2-.78-2.72-2.2-2.72-1.4 0-2.47 1.5-2.47 3v5.4h-1.85v-5.7c0-1.98-.78-2.7-2.18-2.7-1.4 0-2.5 1.5-2.5 3v5.4h-1.85v-9.76z" fill="#737373"/><path d="M838.38 314.37l-2.88 5h-7.52c-.34 0-.64-.1-.94-.26-.3-.16-.53-.4-.7-.68l-6.06-10.6c-.16-.3-.26-.6-.26-.94 0-.33.1-.64.26-.93l2.3-4.05 2.85 5 4.32 7.47zm0 0" fill="#ffcc40"/><path d="M847.88 307.8l-6.1 10.62c-.16.3-.4.52-.7.7-.3.15-.6.24-.93.24h-4.65l2.88-5 4.32-7.47-4.32-7.5h5.68l3.77 6.56c.16.28.28.6.28.92 0 .33-.06.64-.22.93z" fill="#da4437"/><path d="M844.06 299.4h-14.3l-4.3 7.5-2.88-5 3.77-6.55c.16-.3.4-.52.7-.68.3-.17.6-.25.93-.25h12.17c.34 0 .64.08.94.25.3.16.52.4.68.68z" fill="#4284f3"/><path d="M838.38 299.4l4.32 7.5-4.32 7.47h-8.63l-4.3-7.48 4.3-7.5z" fill="#dfdfdf"/><path d="M830.33 306.9c0-2.08 1.68-3.75 3.75-3.75 2.07 0 3.75 1.67 3.75 3.74 0 2.05-1.68 3.73-3.75 3.73-2.07 0-3.75-1.68-3.75-3.74z" fill="#fff"/><path d="M826.35 295.5c.16-.28.4-.5.7-.67.3-.17.6-.25.93-.25h12.17c.34 0 .64.08.94.25.3.16.52.4.68.68l2.28 3.9-2.28-4.05c-.16-.3-.4-.52-.7-.68-.3-.17-.6-.25-.93-.25h-12.17c-.34 0-.64.08-.94.25-.3.16-.53.4-.7.68l-3.76 6.55v.08z" fill="#fff" fill-opacity=".2"/><path d="M825.45 306.9l4.3-7.5h14.35l-.07-.15h-14.28l-4.3 7.48" fill="#1a237e" fill-opacity=".2"/><path d="M820.28 306.1l2.3-3.98 2.87 5 4.3 7.47h8.56l.08-.17h-8.63l-4.3-7.54-2.87-5-2.33 4c-.18.3-.25.63-.23 1 .03-.3.12-.55.26-.8zm0 0" fill="#fff" fill-opacity=".2"/><path d="M835.6 319.2h-7.62c-.34 0-.64-.1-.94-.25-.3-.17-.53-.4-.7-.7l-6.06-10.6c-.14-.25-.23-.53-.26-.83-.02.35.07.68.26 1l6.07 10.6c.16.3.4.52.7.7.3.15.6.24.93.24h7.52z" fill="#be360c"/><path d="M842.8 306.9l-4.33-7.5h-.1l4.33 7.5zM847.88 307.66l-6.1 10.6c-.16.3-.4.52-.7.7-.3.15-.6.24-.93.24h-4.56l-.1.16h4.65c.34 0 .64-.1.94-.25.3-.16.52-.4.68-.68l6.1-10.6c.18-.3.25-.64.23-1-.02.3-.1.58-.22.84zm0 0" fill="#3e2723"/><path d="M844.06 299.56l3.77 6.56c.14.26.23.54.25.85.03-.36-.07-.7-.25-1l-3.77-6.57h-5.68l.1.16M838.38 314.53l4.4-7.64h-.08l-4.32 7.47-2.88 5h.1z" fill="#fff"/><path d="M847.88 305.96l-3.82-6.56-2.28-4.05c-.16-.3-.4-.52-.7-.68-.3-.17-.6-.25-.93-.25h-12.17c-.34 0-.64.08-.94.25-.3.16-.53.4-.7.68l-6.06 10.6c-.16.3-.26.6-.26.94 0 .32.1.63.26.92l6.07 10.6c.16.3.4.52.7.7.3.15.6.24.93.24h12.17c.34 0 .64-.1.94-.25.3-.16.52-.4.68-.68l6.1-10.6c.16-.3.25-.6.25-.93 0-.34-.1-.65-.25-.94z" fill="url(#b)"/><path d="M740.45 88c0-4.42 3.58-8 8-8h520.78c4.42 0 8 3.58 8 8v26.15c0 4.4-3.58 8-8 8H748.45c-4.42 0-8-3.6-8-8z" stroke="#000" stroke-opacity="0" stroke-width="2" fill="#fff" fill-opacity="0"/><use xlink:href="#c" transform="matrix(1,0,0,1,744.4519859370769,84) translate(38.51123456790123 23.657777777777778)"/><use xlink:href="#d" transform="matrix(1,0,0,1,744.4519859370769,84) translate(142.67172839506173 23.657777777777778)"/><use xlink:href="#e" transform="matrix(1,0,0,1,744.4519859370769,84) translate(266.1346913580247 23.657777777777778)"/><use xlink:href="#f" transform="matrix(1,0,0,1,744.4519859370769,84) translate(296.65444444444444 23.657777777777778)"/><use xlink:href="#g" transform="matrix(1,0,0,1,744.4519859370769,84) translate(385.2272839506173 23.657777777777778)"/><path d="M772.46 120.77h481.1M772.5 120.77h-1.04M1253.52 120.77h1.03" stroke="#b2b2b2" stroke-width="2" fill="none"/><path d="M740 129.07c0-4.4 3.58-8 8-8h521.38c4.42 0 8 3.6 8 8v4c0 4.42-3.58 8-8 8H748c-4.42 0-8-3.58-8-8z" stroke="#000" stroke-opacity="0" stroke-width="2" fill="#fff" fill-opacity="0"/><path d="M976.6 435.78l-26.35-45.3c-2.05-3.63-5.64-5.68-9.86-5.8h-52.5c-4.2.12-7.8 2.17-9.85 5.8l-26.36 45.2c-2.06 3.5-2.06 7.6 0 11.25l26.35 45.52c2.05 3.75 5.5 5.92 9.86 6.03h52.5c4.2-.1 7.8-2.28 9.85-6.03l26.36-45.18c2.06-3.75 2.06-7.85 0-11.5z" stroke="#000" stroke-opacity="0" fill="#4285f4"/><path d="M929.8 420.27L904.54 428l-5.83 3.37 8.47 8.3-11.52.7.24 10.7-6.4 7.98 39.8 39.4h11.1c4.23-.16 7.82-2.27 9.9-6.02l19.1-32.9z" stroke="#000" stroke-opacity="0" fill-opacity=".07"/><path d="M912.15 430.7h4v21.5h-4v-21.5zM895.1 440.58h3.06v12.86h-4V441.5c0-.5.42-.92.93-.92zM930.13 440.58h3.07c.5 0 .93.4.93.93v11.94h-4v-12.86z" stroke="#000" stroke-opacity="0" fill="#fff"/><path d="M895.16 438.6h37.97c.56 0 1 .44 1 1v2.96h-39.97v-2.97c0-.56.44-1 1-1zM899.12 419.8h30.05c.64 0 .96.33.96.97v9.95c0 .64-.32.96-.96.96h-30.05c-.64 0-.96-.32-.96-.96v-9.95c0-.64.32-.96.96-.96zM890.14 449.48h11.04c.65 0 .97.33.97.97v7.96c0 .65-.32.98-.97.98h-11.04c-.65 0-.98-.33-.98-.97v-7.95c0-.64.33-.97.98-.97zM927.1 449.48h11.05c.65 0 .98.33.98.97v7.96c0 .65-.33.98-.98.98H927.1c-.64 0-.96-.33-.96-.97v-7.95c0-.64.32-.97.97-.97zM908.16 449.48h11.97c.67 0 1 .34 1 1v7.9c0 .66-.33 1-1 1h-11.97c-.67 0-1-.34-1-1v-7.9c0-.66.33-1 1-1z" stroke="#000" stroke-opacity="0" fill="#fff"/><use xlink:href="#h" transform="matrix(1,0,0,1,850.150661978987,503.47908684480933) translate(13.708984375 16.69921875)"/><use xlink:href="#i" transform="matrix(1,0,0,1,850.150661978987,503.47908684480933) translate(74.3974609375 16.69921875)"/><use xlink:href="#j" transform="matrix(1,0,0,1,850.150661978987,503.47908684480933) translate(24.5458984375 37.79296875)"/><path d="M1050.15 323.58c0-1.1.9-2 2-2h236c1.1 0 2 .9 2 2v236c0 1.1-.9 2-2 2h-236c-1.1 0-2-.9-2-2z" stroke="#fff" stroke-width="4" fill="#ede7f6"/><use xlink:href="#k" transform="matrix(1,0,0,1,1066.150661978987,337.5840868448093) translate(22.6748046875 16.69921875)"/><use xlink:href="#l" transform="matrix(1,0,0,1,1066.150661978987,337.5840868448093) translate(117.46484375 16.69921875)"/><path d="M1232.6 435.78l-26.35-45.3c-2.05-3.63-5.64-5.68-9.86-5.8h-52.5c-4.2.12-7.8 2.17-9.85 5.8l-26.36 45.2c-2.06 3.5-2.06 7.6 0 11.25l26.35 45.52c2.05 3.75 5.5 5.92 9.86 6.03h52.5c4.2-.1 7.8-2.28 9.85-6.03l26.36-45.18c2.06-3.75 2.06-7.85 0-11.5z" stroke="#000" stroke-opacity="0" fill="#4285f4"/><path d="M1225.02 460.16l-43.25-42.83-3.1 6.65-6.75-6.65-3.1 6.65-6.66-6.65-1.66 8.03-5.96.98-1.2 5.2-7.7 1.85 6.92 6.8-6.83 2.93 6.83 6.73-6.9 3 46.1 45.6h4.7c4.2-.17 7.77-2.28 9.83-6z" stroke="#000" stroke-opacity="0" fill-opacity=".07"/><path d="M1175.97 434.74h-11.4c-.67 0-1.2.54-1.2 1.2v11.3c0 .65.53 1.2 1.2 1.2h11.4c.66-.03 1.17-.57 1.17-1.2v-11.3c0-.66-.54-1.2-1.2-1.2" stroke="#000" stroke-opacity="0" fill="#fff"/><path d="M1194.03 433.8c.6 0 1.1-.43 1.1-1.07V431c0-.58-.5-1.07-1.1-1.07h-5.56v-5.16c0-.7-.55-1.23-1.2-1.23h-5.2v-5.46c0-.6-.5-1.08-1.1-1.08h-1.8c-.6 0-1.04.5-1.04 1.08v5.5h-5.86v-5.5c-.05-.6-.55-1.08-1.15-1.08h-1.73c-.6 0-1.1.5-1.1 1.08v5.5h-5.87v-5.5c0-.6-.5-1.08-1.1-1.08h-1.73c-.65 0-1.1.5-1.1 1.08v5.5h-5.2c-.66 0-1.2.5-1.2 1.2v5.1h-5.57c-.6 0-1.1.5-1.1 1.08v1.77c0 .6.5 1.08 1.1 1.08h5.56v5.77h-5.57c-.6 0-1.1.5-1.1 1.08v1.82c0 .6.5 1.08 1.1 1.08h5.56v5.8h-5.57c-.6 0-1.1.5-1.1 1.1v1.76c0 .6.5 1.04 1.1 1.04h5.56v5.16c0 .64.5 1.18 1.2 1.18h5.2v5.5c0 .6.45 1.1 1.1 1.1h1.74c.6 0 1.1-.5 1.1-1.1v-5.5h5.85v5.5c0 .6.5 1.1 1.1 1.1h1.72c.6 0 1.1-.5 1.1-1.1v-5.5h5.9v5.5c0 .6.5 1.1 1.1 1.1h1.8c.6 0 1.1-.5 1.1-1.1v-5.5h5.2c.65-.05 1.15-.54 1.15-1.18v-5.16h5.56c.6 0 1.1-.5 1.1-1.08v-1.72c0-.64-.5-1.1-1.1-1.1h-5.56v-5.8h5.56c.6 0 1.1-.48 1.1-1.07v-1.77-.05c0-.6-.5-1.08-1.1-1.08h-5.56v-5.76h5.56zm-9.64 21.8h-28.23v-27.98h28.22z" stroke="#000" stroke-opacity="0" fill="#fff"/><use xlink:href="#m" transform="matrix(1,0,0,1,1106.150661978987,503.47908684480933) translate(21.68505859375 16.69921875)"/><path d="M1005.14 780c1.1 0 2 .9 2 2v182.5c0 1.1-.9 2-2 2H823.17c-1.1 0-2-.9-2-2V782c0-1.1.9-2 2-2z" stroke="#fff" stroke-width="4" fill="#ddf4fe"/><path d="M1348 323.58c0-1.1.9-2 2-2h236c1.1 0 2 .9 2 2v236c0 1.1-.9 2-2 2h-236c-1.1 0-2-.9-2-2z" stroke="#fff" stroke-width="4" fill="#def1e9"/><use xlink:href="#n" transform="matrix(1,0,0,1,1364,337.5840868448093) translate(10.291015625 16.69921875)"/><use xlink:href="#o" transform="matrix(1,0,0,1,1364,337.5840868448093) translate(123.388671875 16.69921875)"/><path d="M400 322c0-1.1.9-2 2-2h236c1.1 0 2 .9 2 2v216c0 1.1-.9 2-2 2H402c-1.1 0-2-.9-2-2z" fill="#e1f5fe"/><use xlink:href="#p" transform="matrix(1,0,0,1,416,336) translate(29.88623046875 16.69921875)"/><use xlink:href="#q" transform="matrix(1,0,0,1,416,336) translate(85.51220703125 16.69921875)"/><g filter="url(#r)"><path d="M460 383.58c0-1.1.9-2 2-2h116c1.1 0 2 .9 2 2v116c0 1.1-.9 2-2 2H462c-1.1 0-2-.9-2-2z" fill="#fff"/><path d="M487.28 417.04h73.63v-8.18H487.3c-2.26 0-4.2.8-5.8 2.4-1.6 1.6-2.4 3.52-2.4 5.78v45h-8.17v12.27h57.28v-12.26h-40.9zm77.72 8.18h-24.55c-1.13 0-2.1.4-2.9 1.2-.78.8-1.18 1.76-1.18 2.9v40.9c0 1.13.4 2.1 1.2 2.9.8.8 1.75 1.2 2.88 1.2H565c1.13 0 2.1-.4 2.9-1.2.8-.8 1.2-1.77 1.2-2.9v-40.9c0-1.14-.4-2.1-1.2-2.9-.8-.8-1.77-1.2-2.9-1.2zm-4.1 36.82h-16.35V433.4h16.36z" fill="#757575"/></g><path d="M1326.46 853.64l-26.36-45.3c-2.05-3.63-5.64-5.68-9.86-5.8h-52.48c-4.22.12-7.8 2.17-9.86 5.8l-26.36 45.2c-2.05 3.5-2.05 7.6 0 11.25l26.36 45.5c2.05 3.76 5.5 5.92 9.86 6.04h52.48c4.22-.12 7.8-2.28 9.86-6.03l26.36-45.17c2.05-3.75 2.05-7.85 0-11.5z" stroke="#000" stroke-opacity="0" fill="#4285f4"/><path d="M1280.18 830.74l-12.18 5.9-6-5.9-21.1 11.9 4.58 4.53-11.56 17.2 7.06 7.02 6.9 16.76 28.42 28.15h14.04c4.23-.16 7.77-2.3 9.8-5.98l22.07-38z" stroke="#000" stroke-opacity="0" fill-opacity=".07"/><path d="M1279.9 869.3l2.94-4.94h11.22l2.9-4.93-7.52-12.85h-11.74l-3.37-5.97h-3.35v-3.95h5.67l3.4 5.97h7.07l-6.97-11.88H1266v16.8h6l2.33 3.97H1266v7.93h7.58l3.47-5.9h9.3l2.32 3.95h-9.33l-3.47 5.9H1266v14.87h12.48l-2.33 3.96H1266v5.92h14.15l11.6-19.8h-6.6l-2.96 4.94h-11.22v-3.96h8.92zM1248.1 869.3l-2.96-4.94h-11.2l-2.92-4.93 7.53-12.85h11.74l3.36-5.97h3.35v-3.95h-5.66l-3.4 5.97h-7.07l6.97-11.88H1262v16.8h-6l-2.34 3.97h8.34v7.93h-7.6l-3.46-5.9h-9.3l-2.32 3.95h9.33l3.46 5.9h9.9v14.87h-12.5l2.34 3.96H1262v5.92h-14.16l-11.62-19.8h6.63l2.95 4.94h11.2v-3.96h-8.9z" stroke="#000" stroke-opacity="0" fill="#fff"/><use xlink:href="#s" transform="matrix(1,0,0,1,1200,921.338077789182) translate(42.7216796875 16.69921875)"/><path d="M596.38 441.58H833.8" stroke="#666" fill="none"/><path d="M581.62 441.58l14.26-4.63v9.27zM848.58 441.58l-14.27 4.64v-9.27z" stroke="#666" fill="#666"/><use xlink:href="#t" transform="matrix(1,0,0,1,593.798395986243,445.5840868448093) translate(34.42999999999998 14.4)"/><use xlink:href="#u" transform="matrix(1,0,0,1,593.798395986243,445.5840868448093) translate(88.37999999999998 14.4)"/><use xlink:href="#v" transform="matrix(1,0,0,1,593.798395986243,445.5840868448093) translate(176.28 14.4)"/><use xlink:href="#w" transform="matrix(1,0,0,1,593.798395986243,445.5840868448093) translate(0.0049999999999954525 36)"/><use xlink:href="#x" transform="matrix(1,0,0,1,593.798395986243,445.5840868448093) translate(59.905 36)"/><use xlink:href="#y" transform="matrix(1,0,0,1,593.798395986243,445.5840868448093) translate(142.755 36)"/><use xlink:href="#z" transform="matrix(1,0,0,1,593.798395986243,445.5840868448093) translate(168.70499999999998 36)"/><path d="M994.5 441.58h95.3" stroke="#666" fill="none"/><path d="M979.73 441.58l14.26-4.63v9.27zM1104.58 441.58l-14.27 4.64v-9.27z" stroke="#666" fill="#666"/><path d="M1530.46 435.78l-26.36-45.3c-2.05-3.63-5.64-5.68-9.86-5.8h-52.48c-4.22.12-7.8 2.17-9.86 5.8l-26.36 45.2c-2.05 3.5-2.05 7.6 0 11.25l26.36 45.52c2.05 3.75 5.5 5.92 9.86 6.03h52.48c4.22-.1 7.8-2.28 9.86-6.03l26.36-45.18c2.05-3.75 2.05-7.85 0-11.5z" stroke="#000" stroke-opacity="0" fill="#4285f4"/><path d="M1487.98 423.68l-19.34-6.6-20.4 15.3 12.77 12.6-12.84 1.32 12.02 11.87-12.17 1.47 39.23 38.8h7.02c4.23-.15 7.8-2.27 9.83-6l19.5-33.53z" stroke="#000" stroke-opacity="0" fill-opacity=".07"/><path d="M1468 412.12l-20 11.43v8.84l20 11.4 19.98-11.4v-8.85zm11.95 15.7l-11.96 6.82-11.92-6.8 11.9-6.85 11.97 6.83z" stroke="#000" stroke-opacity="0" fill="#fff"/><path d="M1448 437.37v8.83l20 11.42 19.98-11.42v-8.83l-20 11.42-19.97-11.43z" stroke="#000" stroke-opacity="0" fill="#fff"/><path d="M1448 450.76v8.83l20 11.42 19.98-11.43v-8.84l-20 11.43-19.97-11.44z" stroke="#000" stroke-opacity="0" fill="#fff"/><use xlink:href="#A" transform="matrix(1,0,0,1,1404,503.47908684480933) translate(27.025 14.4)"/><path d="M586.46 853.64l-26.36-45.3c-2.05-3.63-5.64-5.68-9.86-5.8h-52.48c-4.22.12-7.8 2.17-9.86 5.8l-26.36 45.2c-2.05 3.5-2.05 7.6 0 11.25l26.36 45.5c2.05 3.76 5.5 5.92 9.86 6.04h52.48c4.22-.12 7.8-2.28 9.86-6.03l26.36-45.17c2.05-3.75 2.05-7.85 0-11.5z" stroke="#000" stroke-opacity="0" fill="#4285f4"/><path d="M560.1 910.28l17.55-30.1-37.02-36.7-16.65-4.4-14.87 5.48-5.8 14.83 4.62 16.6 40.74 40.3h1.63c4.23-.15 7.8-2.3 9.8-6.02z" stroke="#000" stroke-opacity="0" fill-opacity=".07"/><path d="M524 836.48c-12.8 0-23.18 10.28-23.18 22.94 0 12.66 10.38 22.94 23.17 22.94 12.8 0 23.17-10.28 23.17-22.94 0-12.66-10.38-22.94-23.18-22.94m0 40.37c-9.74 0-17.57-7.8-17.57-17.43 0-9.6 7.83-17.4 17.56-17.4 9.73 0 17.56 7.8 17.56 17.4 0 9.63-7.83 17.43-17.57 17.43" stroke="#000" stroke-opacity="0" fill="#fff"/><path d="M513 858.54v7.13c1.12 1.9 2.48 3.3 4.38 4.43v-11.56zM521.67 852.5v19.23c1.5.3 2.85.3 4.37 0V852.5zM530.76 861.5v8.47c1.92-1.2 3.3-2.64 4.38-4.6v-3.86zM540.67 873.57l-2.4 2.38c-.42.42-.42 1.1 0 1.5l9.1 9.03c.43.42 1.1.42 1.55 0l2.4-2.38c.42-.42.42-1.1 0-1.52l-9.12-9c-.43-.43-1.1-.43-1.53 0" stroke="#000" stroke-opacity="0" fill="#fff"/><use xlink:href="#B" transform="matrix(1,0,0,1,460,921.338077789182) translate(21.049999999999997 14.4)"/><use xlink:href="#C" transform="matrix(1,0,0,1,460,921.338077789182) translate(77.95 14.4)"/><path d="M976.6 853.64l-26.35-45.3c-2.05-3.63-5.64-5.68-9.86-5.8h-52.5c-4.2.12-7.8 2.17-9.85 5.8l-26.36 45.2c-2.06 3.5-2.06 7.6 0 11.25l26.35 45.5c2.05 3.76 5.5 5.92 9.86 6.04h52.5c4.2-.12 7.8-2.28 9.85-6.03l26.36-45.17c2.06-3.75 2.06-7.85 0-11.5z" stroke="#000" stroke-opacity="0" fill="#4285f4"/><path d="M969.02 878.02l-43.25-42.83-3.1 6.64-6.75-6.65-3.1 6.64-6.66-6.65-1.66 8.02-5.96.98-1.2 5.2-7.7 1.85 6.92 6.82-6.83 2.92 6.83 6.72-6.9 3 46.1 45.6h4.7c4.2-.17 7.77-2.28 9.83-6z" stroke="#000" stroke-opacity="0" fill-opacity=".07"/><path d="M919.97 852.6h-11.4c-.67 0-1.2.54-1.2 1.2v11.3c0 .65.53 1.2 1.2 1.2h11.4c.66-.03 1.17-.57 1.17-1.2v-11.3c0-.66-.54-1.2-1.2-1.2" stroke="#000" stroke-opacity="0" fill="#fff"/><path d="M938.03 851.67c.6 0 1.1-.44 1.1-1.08v-1.73c0-.6-.5-1.08-1.1-1.08h-5.56v-5.17c0-.7-.55-1.23-1.2-1.23h-5.2v-5.46c0-.6-.5-1.08-1.1-1.08h-1.8c-.6 0-1.04.5-1.04 1.08v5.5h-5.86v-5.5c-.05-.6-.55-1.08-1.15-1.08h-1.73c-.6 0-1.1.5-1.1 1.08v5.5h-5.87v-5.5c0-.6-.5-1.08-1.1-1.08h-1.73c-.65 0-1.1.5-1.1 1.08v5.5h-5.2c-.66 0-1.2.5-1.2 1.2v5.1h-5.57c-.6 0-1.1.5-1.1 1.08v1.77c0 .58.5 1.07 1.1 1.07h5.56v5.76h-5.57c-.6 0-1.1.5-1.1 1.08v1.83c0 .6.5 1.08 1.1 1.08h5.56v5.8h-5.57c-.6 0-1.1.5-1.1 1.1v1.76c0 .6.5 1.04 1.1 1.04h5.56v5.16c0 .64.5 1.18 1.2 1.18h5.2v5.5c0 .6.45 1.1 1.1 1.1h1.74c.6 0 1.1-.5 1.1-1.1v-5.5h5.85v5.5c0 .6.5 1.1 1.1 1.1h1.72c.6 0 1.1-.5 1.1-1.1v-5.5h5.9v5.5c0 .6.5 1.1 1.1 1.1h1.8c.6 0 1.1-.5 1.1-1.1v-5.5h5.2c.65-.05 1.15-.54 1.15-1.18v-5.16h5.56c.6 0 1.1-.5 1.1-1.08v-1.73c0-.64-.5-1.1-1.1-1.1h-5.56v-5.8h5.56c.6 0 1.1-.48 1.1-1.07v-1.77-.05c0-.58-.5-1.07-1.1-1.07h-5.56v-5.76h5.56zm-9.64 21.8h-28.23v-28h28.22z" stroke="#000" stroke-opacity="0" fill="#fff"/><use xlink:href="#D" transform="matrix(1,0,0,1,850.1506619789872,921.338077789182) translate(-1.80810546875 16.69921875)"/><path d="M588.46 859.44H833.8" stroke="#666" fill="none"/><path d="M588.47 859.94h-.57l.1-.87-.02-.13h.5z" fill="#666"/><path d="M848.58 859.44l-14.27 4.64v-9.27z" stroke="#666" fill="#666"/><use xlink:href="#E" transform="matrix(1,0,0,1,595.4243114370556,812.2430777891819) translate(0.0049999999999954525 14.4)"/><use xlink:href="#F" transform="matrix(1,0,0,1,595.4243114370556,812.2430777891819) translate(96.755 14.4)"/><use xlink:href="#G" transform="matrix(1,0,0,1,595.4243114370556,812.2430777891819) translate(137.70499999999998 14.4)"/><use xlink:href="#H" transform="matrix(1,0,0,1,595.4243114370556,812.2430777891819) translate(12.429999999999993 36)"/><use xlink:href="#I" transform="matrix(1,0,0,1,595.4243114370556,812.2430777891819) translate(53.32999999999999 36)"/><use xlink:href="#J" transform="matrix(1,0,0,1,595.4243114370556,812.2430777891819) translate(125.27999999999999 36)"/><path d="M1250.5 441.58h137.16" stroke="#666" fill="none"/><path d="M1235.73 441.58l14.26-4.63v9.27zM1402.43 441.58l-14.27 4.64v-9.27z" stroke="#666" fill="#666"/><path d="M978.6 859.44h205.06" stroke="#666" fill="none"/><path d="M978.62 859.94h-.57l.1-.87-.02-.13h.5z" fill="#666"/><path d="M1198.43 859.44l-14.27 4.64v-9.27z" stroke="#666" fill="#666"/><path d="M914.15 777.5V649.42c0-6.62 5.37-12 12-12h497.98c6.62 0 12-5.37 12-12v-112.2" stroke="#666" fill="none"/><path d="M914.65 778h-1v-.5h1z" fill="#666"/><path d="M1436.13 498.47l4.63 14.26h-9.27z" stroke="#666" fill="#666"/><g><use xlink:href="#K" transform="matrix(1,0,0,1,1064.1339586028457,611.8240818210321) translate(0 14.4)"/><use xlink:href="#u" transform="matrix(1,0,0,1,1064.1339586028457,611.8240818210321) translate(62.95 14.4)"/><use xlink:href="#L" transform="matrix(1,0,0,1,1064.1339586028457,611.8240818210321) translate(150.85000000000002 14.4)"/><use xlink:href="#M" transform="matrix(1,0,0,1,1064.1339586028457,611.8240818210321) translate(170.85000000000002 14.4)"/></g><path d="M1499.86 497.33V708c0 6.63-5.37 12-12 12h-365.5c-6.62 0-12 5.37-12 12v111.06" stroke="#666" fill="none"/><path d="M1500.36 497.34h-1v-.2l1-.62z" fill="#666"/><path d="M1110.37 857.83l-4.63-14.27h9.27z" stroke="#666" fill="#666"/><g><use xlink:href="#N" transform="matrix(1,0,0,1,1118.3716041397151,735.7210219922381) translate(0 14.4)"/><use xlink:href="#O" transform="matrix(1,0,0,1,1118.3716041397151,735.7210219922381) translate(47.95 14.4)"/><use xlink:href="#u" transform="matrix(1,0,0,1,1118.3716041397151,735.7210219922381) translate(155.9 14.4)"/><use xlink:href="#L" transform="matrix(1,0,0,1,1118.3716041397151,735.7210219922381) translate(243.8 14.4)"/><use xlink:href="#P" transform="matrix(1,0,0,1,1118.3716041397151,735.7210219922381) translate(263.8 14.4)"/><use xlink:href="#Q" transform="matrix(1,0,0,1,1118.3716041397151,735.7210219922381) translate(337.75 14.4)"/></g><path d="M1328.46 859.44h231.5c6.62 0 12-5.37 12-12V453.58c0-6.62-5.38-12-12-12h-11.62" stroke="#666" fill="none"/><path d="M1328.47 859.94h-.57l.1-.87-.02-.13h.5z" fill="#666"/><path d="M1533.57 441.58l14.27-4.63v9.27z" stroke="#666" fill="#666"/><g><use xlink:href="#R" transform="matrix(1,0,0,1,1329.690366135206,863.443077789182) translate(0 14.4)"/><use xlink:href="#S" transform="matrix(1,0,0,1,1329.690366135206,863.443077789182) translate(35 14.4)"/><use xlink:href="#u" transform="matrix(1,0,0,1,1329.690366135206,863.443077789182) translate(97.95 14.4)"/><use xlink:href="#v" transform="matrix(1,0,0,1,1329.690366135206,863.443077789182) translate(185.85000000000002 14.4)"/><use xlink:href="#T" transform="matrix(1,0,0,1,1329.690366135206,863.443077789182) translate(0 36)"/><use xlink:href="#x" transform="matrix(1,0,0,1,1329.690366135206,863.443077789182) translate(5 36)"/><use xlink:href="#U" transform="matrix(1,0,0,1,1329.690366135206,863.443077789182) translate(87.85000000000001 36)"/><use xlink:href="#V" transform="matrix(1,0,0,1,1329.690366135206,863.443077789182) translate(122.85000000000001 36)"/><use xlink:href="#W" transform="matrix(1,0,0,1,1329.690366135206,863.443077789182) translate(214.8 36)"/></g><defs><radialGradient gradientUnits="userSpaceOnUse" id="a" fx="-96854.4" fy="87268.96" cx="99302.4" cy="-85580.77" r="9088.8"><stop offset="0%" stop-color="#fff" stop-opacity=".1"/><stop offset="100%" stop-color="#fff" stop-opacity="0"/></radialGradient><radialGradient gradientUnits="userSpaceOnUse" id="b" fx="-96854.4" fy="86864.86" cx="99302.4" cy="-85984.86" r="9088.8"><stop offset="0%" stop-color="#fff" stop-opacity=".1"/><stop offset="100%" stop-color="#fff" stop-opacity="0"/></radialGradient><path fill="#b2b2b2" d="M136-208V0H84v-208H4v-40h212v40h-80" id="X"/><path fill="#b2b2b2" d="M110-194c64 0 96 36 96 99 0 64-35 99-97 99-61 0-95-36-95-99 0-62 34-99 96-99zm-1 164c35 0 45-28 45-65 0-40-10-65-43-65-34 0-45 26-45 65 0 36 10 65 43 65" id="Y"/><path fill="#b2b2b2" d="M144 0l-44-69L55 0H2l70-98-66-92h53l41 62 40-62h54l-67 91 71 99h-54" id="Z"/><path fill="#b2b2b2" d="M25-224v-37h50v37H25zM25 0v-190h50V0H25" id="aa"/><path fill="#b2b2b2" d="M190-63c-7 42-38 67-86 67-59 0-84-38-90-98-12-110 154-137 174-36l-49 2c-2-19-15-32-35-32-30 0-35 28-38 64-6 74 65 87 74 30" id="ab"/><path fill="#b2b2b2" d="M115-3C79 11 28 4 28-45v-112H4v-33h27l15-45h31v45h36v33H77v99c-1 23 16 31 38 25v30" id="ac"/><path fill="#b2b2b2" d="M123 10C108 53 80 86 19 72V37c35 8 53-11 59-39L3-190h52l48 148c12-52 28-100 44-148h51" id="ad"/><g id="c"><use transform="matrix(0.0728395061728395,0,0,0.0728395061728395,0,0)" xlink:href="#X"/><use transform="matrix(0.0728395061728395,0,0,0.0728395061728395,13.985185185185184,0)" xlink:href="#Y"/><use transform="matrix(0.0728395061728395,0,0,0.0728395061728395,29.937037037037037,0)" xlink:href="#Z"/><use transform="matrix(0.0728395061728395,0,0,0.0728395061728395,44.504938271604935,0)" xlink:href="#aa"/><use transform="matrix(0.0728395061728395,0,0,0.0728395061728395,51.78888888888889,0)" xlink:href="#ab"/><use transform="matrix(0.0728395061728395,0,0,0.0728395061728395,66.35679012345679,0)" xlink:href="#aa"/><use transform="matrix(0.0728395061728395,0,0,0.0728395061728395,73.64074074074074,0)" xlink:href="#ac"/><use transform="matrix(0.0728395061728395,0,0,0.0728395061728395,82.30864197530865,0)" xlink:href="#ad"/></g><path fill="#b2b2b2" d="M88-194c31-1 46 15 58 34l-1-101h50l1 261h-48c-2-10 0-23-3-31C134-8 116 4 84 4 32 4 16-41 15-95c0-56 19-97 73-99zm17 164c33 0 40-30 41-66 1-37-9-64-41-64s-38 30-39 65c0 43 13 65 39 65" id="ae"/><path fill="#b2b2b2" d="M185-48c-13 30-37 53-82 52C43 2 14-33 14-96s30-98 90-98c62 0 83 45 84 108H66c0 31 8 55 39 56 18 0 30-7 34-22zm-45-69c5-46-57-63-70-21-2 6-4 13-4 21h74" id="af"/><path fill="#b2b2b2" d="M135-194c87-1 58 113 63 194h-50c-7-57 23-157-34-157-59 0-34 97-39 157H25l-1-190h47c2 12-1 28 3 38 12-26 28-41 61-42" id="ag"/><g id="d"><use transform="matrix(0.0728395061728395,0,0,0.0728395061728395,0,0)" xlink:href="#ae"/><use transform="matrix(0.0728395061728395,0,0,0.0728395061728395,15.95185185185185,0)" xlink:href="#af"/><use transform="matrix(0.0728395061728395,0,0,0.0728395061728395,30.51975308641975,0)" xlink:href="#ac"/><use transform="matrix(0.0728395061728395,0,0,0.0728395061728395,39.187654320987654,0)" xlink:href="#af"/><use transform="matrix(0.0728395061728395,0,0,0.0728395061728395,53.75555555555555,0)" xlink:href="#ab"/><use transform="matrix(0.0728395061728395,0,0,0.0728395061728395,68.32345679012346,0)" xlink:href="#ac"/><use transform="matrix(0.0728395061728395,0,0,0.0728395061728395,76.99135802469138,0)" xlink:href="#aa"/><use transform="matrix(0.0728395061728395,0,0,0.0728395061728395,84.2753086419753,0)" xlink:href="#Y"/><use transform="matrix(0.0728395061728395,0,0,0.0728395061728395,100.22716049382717,0)" xlink:href="#ag"/></g><g id="e"><use transform="matrix(0.0728395061728395,0,0,0.0728395061728395,0,0)" xlink:href="#aa"/><use transform="matrix(0.0728395061728395,0,0,0.0728395061728395,7.28395061728395,0)" xlink:href="#ag"/></g><path fill="#b2b2b2" d="M240-174c0 40-23 61-54 70L253 0h-59l-57-94H76V0H24v-248c93 4 217-23 216 74zM76-134c48-2 112 12 112-38 0-48-66-32-112-35v73" id="ah"/><g id="f"><use transform="matrix(0.0728395061728395,0,0,0.0728395061728395,0,0)" xlink:href="#ah"/><use transform="matrix(0.0728395061728395,0,0,0.0728395061728395,18.86543209876543,0)" xlink:href="#af"/><use transform="matrix(0.0728395061728395,0,0,0.0728395061728395,33.43333333333333,0)" xlink:href="#ae"/><use transform="matrix(0.0728395061728395,0,0,0.0728395061728395,49.38518518518518,0)" xlink:href="#ae"/><use transform="matrix(0.0728395061728395,0,0,0.0728395061728395,65.33703703703704,0)" xlink:href="#aa"/><use transform="matrix(0.0728395061728395,0,0,0.0728395061728395,72.62098765432098,0)" xlink:href="#ac"/></g><path fill="#b2b2b2" d="M67-125c0 53 21 87 73 88 37 1 54-22 65-47l45 17C233-25 199 4 140 4 58 4 20-42 15-125 8-235 124-281 211-232c18 10 29 29 36 50l-46 12c-8-25-30-41-62-41-52 0-71 34-72 86" id="ai"/><path fill="#b2b2b2" d="M220-157c-53 9-28 100-34 157h-49v-107c1-27-5-49-29-50C55-147 81-57 75 0H25l-1-190h47c2 12-1 28 3 38 10-53 101-56 108 0 13-22 24-43 59-42 82 1 51 116 57 194h-49v-107c-1-25-5-48-29-50" id="aj"/><path fill="#b2b2b2" d="M137-138c1-29-70-34-71-4 15 46 118 7 119 86 1 83-164 76-172 9l43-7c4 19 20 25 44 25 33 8 57-30 24-41C81-84 22-81 20-136c-2-80 154-74 161-7" id="ak"/><g id="g"><use transform="matrix(0.0728395061728395,0,0,0.0728395061728395,0,0)" xlink:href="#ai"/><use transform="matrix(0.0728395061728395,0,0,0.0728395061728395,18.86543209876543,0)" xlink:href="#Y"/><use transform="matrix(0.0728395061728395,0,0,0.0728395061728395,34.81728395061728,0)" xlink:href="#aj"/><use transform="matrix(0.0728395061728395,0,0,0.0728395061728395,58.12592592592593,0)" xlink:href="#af"/><use transform="matrix(0.0728395061728395,0,0,0.0728395061728395,72.69382716049383,0)" xlink:href="#ag"/><use transform="matrix(0.0728395061728395,0,0,0.0728395061728395,88.64567901234568,0)" xlink:href="#ac"/><use transform="matrix(0.0728395061728395,0,0,0.0728395061728395,97.31358024691359,0)" xlink:href="#ak"/></g><path d="M1288 0h-193v-673H361V0H169v-1456h192v626h734v-626h193V0" id="al"/><path d="M1175-1298H707V0H516v-1298H49v-158h1126v158" id="am"/><path d="M1216-1011c-1 297-202 441-512 441H361V0H169v-1456h537c297-6 510 164 510 445zm-192 2c1-178-126-288-307-289H361v571h345c196 1 318-92 318-282" id="an"/><path d="M631-137c179 0 314-70 314-231 0-71-25-127-75-166s-141-77-272-115c-165-47-285-106-360-175s-112-154-112-255c0-245 231-397 495-397 206 0 369 89 449 218 43 68 65 142 65 223H942c0-184-129-283-321-283-172 0-299 76-301 236 0 59 26 109 76 150s135 78 256 113c205 59 345 116 436 256 35 53 50 119 50 193-2 256-231 398-507 390C333 12 90-129 80-422h193c0 187 160 285 358 285" id="ao"/><g id="h"><use transform="matrix(0.0087890625,0,0,0.0087890625,0,0)" xlink:href="#al"/><use transform="matrix(0.0087890625,0,0,0.0087890625,12.5771484375,0)" xlink:href="#am"/><use transform="matrix(0.0087890625,0,0,0.0087890625,23.4580078125,0)" xlink:href="#am"/><use transform="matrix(0.0087890625,0,0,0.0087890625,34.1982421875,0)" xlink:href="#an"/><use transform="matrix(0.0087890625,0,0,0.0087890625,45.5537109375,0)" xlink:href="#ao"/></g><path d="M362-157h690V0H169v-1456h193v1299" id="ap"/><path d="M584 20C278 26 81-227 91-551c10-320 175-545 491-551 308-5 503 247 494 573-9 322-175 543-492 549zm-2-970c-208 0-305 185-305 421 0 216 106 398 307 398 211 0 307-186 307-420 0-214-109-399-309-399" id="aq"/><path d="M561-1102c238-4 403 126 403 351v498c0 99 13 178 38 237V0H808c-11-21-19-59-26-114C696-25 593 20 474 20c-199 0-368-130-365-320 4-251 214-359 490-356h180v-85c-1-135-86-212-229-212-115 0-232 67-233 171H131c20-205 206-316 430-320zM294-326c0 117 90 185 207 185 122 0 239-75 278-162v-222H634c-227 0-340 66-340 199" id="ar"/><path d="M520 20C244 20 95-247 95-550c0-298 151-550 427-552 127 0 227 43 301 130v-564h185V0H838l-9-116C755-25 652 20 520 20zm48-965c-210 0-288 177-288 416 0 218 87 392 286 392 117 0 203-53 257-158v-497c-55-102-140-153-255-153" id="as"/><g id="i"><use transform="matrix(0.0087890625,0,0,0.0087890625,0,0)" xlink:href="#ap"/><use transform="matrix(0.0087890625,0,0,0.0087890625,9.685546875,0)" xlink:href="#aq"/><use transform="matrix(0.0087890625,0,0,0.0087890625,19.951171875,0)" xlink:href="#ar"/><use transform="matrix(0.0087890625,0,0,0.0087890625,29.7421875,0)" xlink:href="#as"/></g><path d="M1160-420C1159-145 963 0 674 0H169v-1456h476c294-1 476 112 476 388 0 153-99 253-216 302 146 38 255 167 255 346zM678-157c171 2 289-95 289-261 0-175-95-263-286-263H361v524h317zm250-912c-2-172-104-229-283-229H361v463h290c157 3 278-84 277-234" id="at"/><path d="M341 0H156v-1536h185V0" id="au"/><path d="M589-945c-131 0-219 81-264 174V0H140v-1082h175l6 136c83-104 191-156 324-156 229 0 346 129 346 387V0H806v-716c-2-153-65-229-217-229" id="av"/><path d="M277-555c0 244 77 420 297 424 127 2 249-93 255-210h175C980-127 805 20 574 20 258 20 81-222 92-562c11-319 164-533 481-540 237-5 426 165 431 392H829c-7-133-115-242-256-240-209 4-296 166-296 395" id="aw"/><path d="M341 0H156v-1082h185V0zm-91-1264c-68 0-108-42-109-105 0-62 41-107 109-107s110 44 110 107-42 105-110 105" id="ax"/><path d="M521 20C240 20 96-239 96-550c0-303 147-552 427-552 132 0 235 47 309 140l9-120h169V-26c4 277-183 454-459 452-165-1-334-81-400-187l96-111c79 98 176 147 291 147 180 1 288-109 286-290v-93C750-23 649 20 521 20zm48-965c-209 0-287 178-287 416 0 217 86 392 285 392 117 0 202-53 257-159v-494c-57-103-142-155-255-155" id="ay"/><g id="j"><use transform="matrix(0.0087890625,0,0,0.0087890625,0,0)" xlink:href="#at"/><use transform="matrix(0.0087890625,0,0,0.0087890625,11.2060546875,0)" xlink:href="#ar"/><use transform="matrix(0.0087890625,0,0,0.0087890625,20.9970703125,0)" xlink:href="#au"/><use transform="matrix(0.0087890625,0,0,0.0087890625,25.365234375,0)" xlink:href="#ar"/><use transform="matrix(0.0087890625,0,0,0.0087890625,35.15625,0)" xlink:href="#av"/><use transform="matrix(0.0087890625,0,0,0.0087890625,45.087890625,0)" xlink:href="#aw"/><use transform="matrix(0.0087890625,0,0,0.0087890625,54.509765625,0)" xlink:href="#ax"/><use transform="matrix(0.0087890625,0,0,0.0087890625,58.8779296875,0)" xlink:href="#av"/><use transform="matrix(0.0087890625,0,0,0.0087890625,68.8095703125,0)" xlink:href="#ay"/></g><path d="M973-380H363L226 0H28l556-1456h168L1309 0h-197zM421-538h495l-248-681" id="az"/><path d="M632-1102c291 0 422 251 422 573 0 297-141 548-419 549-131 0-235-42-310-125v521H140v-1498h169l9 120c75-93 180-140 314-140zm-53 971c207 0 290-180 290-419 0-218-92-395-292-395-112 0-196 50-252 149v517c55 99 140 148 254 148" id="aA"/><path d="M456 20C285 20 205-92 206-268v-671H9v-143h197v-262h185v262h202v143H391v671c-9 125 92 149 207 118V0c-49 13-96 20-142 20" id="aB"/><g id="k"><use transform="matrix(0.0087890625,0,0,0.0087890625,0,0)" xlink:href="#az"/><use transform="matrix(0.0087890625,0,0,0.0087890625,11.7421875,0)" xlink:href="#aA"/><use transform="matrix(0.0087890625,0,0,0.0087890625,21.8408203125,0)" xlink:href="#aA"/><use transform="matrix(0.0087890625,0,0,0.0087890625,31.939453125,0)" xlink:href="#au"/><use transform="matrix(0.0087890625,0,0,0.0087890625,36.3076171875,0)" xlink:href="#ax"/><use transform="matrix(0.0087890625,0,0,0.0087890625,40.67578125,0)" xlink:href="#aw"/><use transform="matrix(0.0087890625,0,0,0.0087890625,50.09765625,0)" xlink:href="#ar"/><use transform="matrix(0.0087890625,0,0,0.0087890625,59.888671875,0)" xlink:href="#aB"/><use transform="matrix(0.0087890625,0,0,0.0087890625,65.7685546875,0)" xlink:href="#ax"/><use transform="matrix(0.0087890625,0,0,0.0087890625,70.13671875,0)" xlink:href="#aq"/><use transform="matrix(0.0087890625,0,0,0.0087890625,80.40234375,0)" xlink:href="#av"/></g><path d="M704-1390c-164-38-297 28-288 194v114h231v143H416V0H231v-939H60v-143h171v-111c-12-274 208-416 483-347" id="aC"/><path d="M663-916c-163-27-288 18-338 148V0H140v-1082h180l3 125c61-97 147-145 258-145 36 0 63 5 82 14v172" id="aD"/><path d="M599-131c141 0 220-65 285-146l113 88C906-50 770 20 589 20 281 21 93-214 93-545c0-223 93-397 233-485 74-48 154-72 240-72 300 2 449 218 445 537v77H278c0 197 129 357 321 357zm227-509c-3-180-88-310-260-310-170 0-264 140-282 310h542" id="aE"/><g id="l"><use transform="matrix(0.0087890625,0,0,0.0087890625,0,0)" xlink:href="#aC"/><use transform="matrix(0.0087890625,0,0,0.0087890625,6.2490234375,0)" xlink:href="#aD"/><use transform="matrix(0.0087890625,0,0,0.0087890625,12.1640625,0)" xlink:href="#aq"/><use transform="matrix(0.0087890625,0,0,0.0087890625,22.4296875,0)" xlink:href="#av"/><use transform="matrix(0.0087890625,0,0,0.0087890625,32.361328125,0)" xlink:href="#aB"/><use transform="matrix(0.0087890625,0,0,0.0087890625,38.2412109375,0)" xlink:href="#aE"/><use transform="matrix(0.0087890625,0,0,0.0087890625,47.77734375,0)" xlink:href="#av"/><use transform="matrix(0.0087890625,0,0,0.0087890625,57.708984375,0)" xlink:href="#as"/></g><path d="M483-459l28 192 41-173 288-1016h162l281 1016 40 176 31-196 226-996h193L1420 0h-175L945-1061l-23-111-23 111L588 0H413L61-1456h192" id="aF"/><path d="M634-1102c292 0 422 254 422 573 0 298-143 547-420 549-137 0-242-48-317-145L310 0H140v-1536h185v573c75-93 178-139 309-139zm-44 965c207 0 281-175 281-413 0-224-79-395-283-395-122 0-210 57-263 170v468c57 113 145 170 265 170" id="aG"/><path d="M538-131c121 0 232-49 232-156 0-50-20-88-56-117-73-60-334-92-420-143-92-55-162-110-162-238 0-190 192-317 400-317 223 0 414 129 413 338H759c0-108-110-186-227-186-119 0-215 53-215 159 0 45 18 78 53 101 76 52 331 90 416 139 98 57 169 115 169 251C955-92 760 20 538 20c-176 0-314-68-386-174-38-55-57-115-57-179h185c6 129 116 202 258 202" id="aH"/><path d="M497-251l268-831h189L566 0H425L33-1082h189" id="aI"/><g id="m"><use transform="matrix(0.0087890625,0,0,0.0087890625,0,0)" xlink:href="#aF"/><use transform="matrix(0.0087890625,0,0,0.0087890625,15.697265625,0)" xlink:href="#aE"/><use transform="matrix(0.0087890625,0,0,0.0087890625,25.2333984375,0)" xlink:href="#aG"/><use transform="matrix(0.0087890625,0,0,0.0087890625,35.33203125,0)" xlink:href="#aH"/><use transform="matrix(0.0087890625,0,0,0.0087890625,44.61328125,0)" xlink:href="#aE"/><use transform="matrix(0.0087890625,0,0,0.0087890625,54.1494140625,0)" xlink:href="#aD"/><use transform="matrix(0.0087890625,0,0,0.0087890625,60.3984375,0)" xlink:href="#aI"/><use transform="matrix(0.0087890625,0,0,0.0087890625,69.0029296875,0)" xlink:href="#aE"/><use transform="matrix(0.0087890625,0,0,0.0087890625,78.5390625,0)" xlink:href="#aD"/></g><g id="n"><use transform="matrix(0.0087890625,0,0,0.0087890625,0,0)" xlink:href="#am"/><use transform="matrix(0.0087890625,0,0,0.0087890625,10.0810546875,0)" xlink:href="#aD"/><use transform="matrix(0.0087890625,0,0,0.0087890625,15.8203125,0)" xlink:href="#ar"/><use transform="matrix(0.0087890625,0,0,0.0087890625,25.611328125,0)" xlink:href="#av"/><use transform="matrix(0.0087890625,0,0,0.0087890625,35.54296875,0)" xlink:href="#aH"/><use transform="matrix(0.0087890625,0,0,0.0087890625,44.82421875,0)" xlink:href="#ar"/><use transform="matrix(0.0087890625,0,0,0.0087890625,54.615234375,0)" xlink:href="#aw"/><use transform="matrix(0.0087890625,0,0,0.0087890625,64.037109375,0)" xlink:href="#aB"/><use transform="matrix(0.0087890625,0,0,0.0087890625,69.9169921875,0)" xlink:href="#ax"/><use transform="matrix(0.0087890625,0,0,0.0087890625,74.28515625,0)" xlink:href="#aq"/><use transform="matrix(0.0087890625,0,0,0.0087890625,84.55078125,0)" xlink:href="#av"/><use transform="matrix(0.0087890625,0,0,0.0087890625,94.482421875,0)" xlink:href="#ar"/><use transform="matrix(0.0087890625,0,0,0.0087890625,104.2734375,0)" xlink:href="#au"/></g><g id="o"><use transform="matrix(0.0087890625,0,0,0.0087890625,0,0)" xlink:href="#as"/><use transform="matrix(0.0087890625,0,0,0.0087890625,10.1513671875,0)" xlink:href="#ar"/><use transform="matrix(0.0087890625,0,0,0.0087890625,19.9423828125,0)" xlink:href="#aB"/><use transform="matrix(0.0087890625,0,0,0.0087890625,25.822265625,0)" xlink:href="#ar"/><use transform="matrix(0.0087890625,0,0,0.0087890625,35.61328125,0)" xlink:href="#aG"/><use transform="matrix(0.0087890625,0,0,0.0087890625,45.7119140625,0)" xlink:href="#ar"/><use transform="matrix(0.0087890625,0,0,0.0087890625,55.5029296875,0)" xlink:href="#aH"/><use transform="matrix(0.0087890625,0,0,0.0087890625,64.7841796875,0)" xlink:href="#aE"/></g><path d="M1161-1018c0 201-122 330-278 388l342 618V0h-206L703-589H361V0H168v-1456h482c310-2 511 139 511 438zm-193 0c0-187-120-280-313-280H361v552h295c179 3 313-101 312-272" id="aJ"/><g id="p"><use transform="matrix(0.0087890625,0,0,0.0087890625,0,0)" xlink:href="#aJ"/><use transform="matrix(0.0087890625,0,0,0.0087890625,11.0830078125,0)" xlink:href="#aE"/><use transform="matrix(0.0087890625,0,0,0.0087890625,20.619140625,0)" xlink:href="#as"/><use transform="matrix(0.0087890625,0,0,0.0087890625,30.7705078125,0)" xlink:href="#as"/><use transform="matrix(0.0087890625,0,0,0.0087890625,40.921875,0)" xlink:href="#ax"/><use transform="matrix(0.0087890625,0,0,0.0087890625,45.2900390625,0)" xlink:href="#aB"/></g><path d="M1240-945c-141 0-250 95-250 227V0H804v-709c0-157-77-236-231-236-121 0-204 52-249 155V0H139v-1082h175l5 120c79-93 186-140 321-140 151 0 254 58 309 174 69-98 181-174 345-174 237 0 362 126 362 377V0h-185v-714c-2-159-67-231-231-231" id="aK"/><g id="q"><use transform="matrix(0.0087890625,0,0,0.0087890625,0,0)" xlink:href="#aK"/><use transform="matrix(0.0087890625,0,0,0.0087890625,15.7763671875,0)" xlink:href="#aq"/><use transform="matrix(0.0087890625,0,0,0.0087890625,26.0419921875,0)" xlink:href="#as"/><use transform="matrix(0.0087890625,0,0,0.0087890625,36.193359375,0)" xlink:href="#aE"/><use transform="matrix(0.0087890625,0,0,0.0087890625,45.7294921875,0)" xlink:href="#aD"/><use transform="matrix(0.0087890625,0,0,0.0087890625,51.46875,0)" xlink:href="#ar"/><use transform="matrix(0.0087890625,0,0,0.0087890625,61.259765625,0)" xlink:href="#aB"/><use transform="matrix(0.0087890625,0,0,0.0087890625,66.9638671875,0)" xlink:href="#aq"/><use transform="matrix(0.0087890625,0,0,0.0087890625,77.2294921875,0)" xlink:href="#aD"/><use transform="matrix(0.0087890625,0,0,0.0087890625,83.3203125,0)" xlink:href="#aH"/></g><filter id="r" filterUnits="objectBoundingBox" x="-.01" y="0" width="1.02" height="1.02"><feOffset result="offOut" in="SourceAlpha" dy="1"/><feGaussianBlur result="blurOut" in="offOut" stdDeviation=".75"/><feColorMatrix result="colorOut" in="blurOut" values="0 0 0 0 0 0 0 0 0 0 0 0 0 0 0 0 0 0 0.4 0"/><feBlend in="SourceGraphic" in2="colorOut"/></filter><path d="M992-673H361v516h733V0H169v-1456h915v158H361v468h631v157" id="aL"/><g id="s"><use transform="matrix(0.0087890625,0,0,0.0087890625,0,0)" xlink:href="#at"/><use transform="matrix(0.0087890625,0,0,0.0087890625,11.2060546875,0)" xlink:href="#aL"/><use transform="matrix(0.0087890625,0,0,0.0087890625,21.4365234375,0)" xlink:href="#aJ"/><use transform="matrix(0.0087890625,0,0,0.0087890625,31.81640625,0)" xlink:href="#am"/></g><path d="M140-251c81 0 123 46 123 126C263-53 228-8 163 1c7 30 30 48 69 40v23c-55 16-95-15-103-61C56-3 17-48 17-125c0-80 42-126 123-126zm0 227c63 0 89-41 89-101s-29-99-89-99c-61 0-89 39-89 99S79-25 140-24" id="aM"/><path d="M84 4C-5 8 30-112 23-190h32v120c0 31 7 50 39 49 72-2 45-101 50-169h31l1 190h-30c-1-10 1-25-2-33-11 22-28 36-60 37" id="aN"/><path d="M100-194c63 0 86 42 84 106H49c0 40 14 67 53 68 26 1 43-12 49-29l28 8c-11 28-37 45-77 45C44 4 14-33 15-96c1-61 26-98 85-98zm52 81c6-60-76-77-97-28-3 7-6 17-6 28h103" id="aO"/><path d="M114-163C36-179 61-72 57 0H25l-1-190h30c1 12-1 29 2 39 6-27 23-49 58-41v29" id="aP"/><path d="M179-190L93 31C79 59 56 82 12 73V49c39 6 53-20 64-50L1-190h34L92-34l54-156h33" id="aQ"/><g id="t"><use transform="matrix(0.05,0,0,0.05,0,0)" xlink:href="#aM"/><use transform="matrix(0.05,0,0,0.05,14,0)" xlink:href="#aN"/><use transform="matrix(0.05,0,0,0.05,24,0)" xlink:href="#aO"/><use transform="matrix(0.05,0,0,0.05,34,0)" xlink:href="#aP"/><use transform="matrix(0.05,0,0,0.05,39.95,0)" xlink:href="#aQ"/></g><path d="M96-169c-40 0-48 33-48 73s9 75 48 75c24 0 41-14 43-38l32 2c-6 37-31 61-74 61-59 0-76-41-82-99-10-93 101-131 147-64 4 7 5 14 7 22l-32 3c-4-21-16-35-41-35" id="aR"/><path d="M100-194c62-1 85 37 85 99 1 63-27 99-86 99S16-35 15-95c0-66 28-99 85-99zM99-20c44 1 53-31 53-75 0-43-8-75-51-75s-53 32-53 75 10 74 51 75" id="aS"/><path d="M210-169c-67 3-38 105-44 169h-31v-121c0-29-5-50-35-48C34-165 62-65 56 0H25l-1-190h30c1 10-1 24 2 32 10-44 99-50 107 0 11-21 27-35 58-36 85-2 47 119 55 194h-31v-121c0-29-5-49-35-48" id="aT"/><path d="M117-194c89-4 53 116 60 194h-32v-121c0-31-8-49-39-48C34-167 62-67 57 0H25l-1-190h30c1 10-1 24 2 32 11-22 29-35 61-36" id="aU"/><path d="M59-47c-2 24 18 29 38 22v24C64 9 27 4 27-40v-127H5v-23h24l9-43h21v43h35v23H59v120" id="aV"/><path d="M135-143c-3-34-86-38-87 0 15 53 115 12 119 90S17 21 10-45l28-5c4 36 97 45 98 0-10-56-113-15-118-90-4-57 82-63 122-42 12 7 21 19 24 35" id="aW"/><g id="u"><use transform="matrix(0.05,0,0,0.05,0,0)" xlink:href="#aR"/><use transform="matrix(0.05,0,0,0.05,9,0)" xlink:href="#aS"/><use transform="matrix(0.05,0,0,0.05,19,0)" xlink:href="#aT"/><use transform="matrix(0.05,0,0,0.05,33.95,0)" xlink:href="#aT"/><use transform="matrix(0.05,0,0,0.05,48.900000000000006,0)" xlink:href="#aO"/><use transform="matrix(0.05,0,0,0.05,58.900000000000006,0)" xlink:href="#aU"/><use transform="matrix(0.05,0,0,0.05,68.9,0)" xlink:href="#aV"/><use transform="matrix(0.05,0,0,0.05,73.9,0)" xlink:href="#aW"/></g><path d="M206 0h-36l-40-164L89 0H53L-1-190h32L70-26l43-164h34l41 164 42-164h31" id="aX"/><path d="M24-231v-30h32v30H24zM24 0v-190h32V0H24" id="aY"/><path d="M106-169C34-169 62-67 57 0H25v-261h32l-1 103c12-21 28-36 61-36 89 0 53 116 60 194h-32v-121c2-32-8-49-39-48" id="aZ"/><g id="v"><use transform="matrix(0.05,0,0,0.05,0,0)" xlink:href="#aX"/><use transform="matrix(0.05,0,0,0.05,12.950000000000001,0)" xlink:href="#aY"/><use transform="matrix(0.05,0,0,0.05,16.900000000000002,0)" xlink:href="#aV"/><use transform="matrix(0.05,0,0,0.05,21.900000000000002,0)" xlink:href="#aZ"/></g><path d="M141 0L90-78 38 0H4l68-98-65-92h35l48 74 47-74h35l-64 92 68 98h-35" id="ba"/><g id="w"><use transform="matrix(0.05,0,0,0.05,0,0)" xlink:href="#aV"/><use transform="matrix(0.05,0,0,0.05,5,0)" xlink:href="#aS"/><use transform="matrix(0.05,0,0,0.05,15,0)" xlink:href="#ba"/><use transform="matrix(0.05,0,0,0.05,24,0)" xlink:href="#aY"/><use transform="matrix(0.05,0,0,0.05,27.950000000000003,0)" xlink:href="#aR"/><use transform="matrix(0.05,0,0,0.05,36.95,0)" xlink:href="#aY"/><use transform="matrix(0.05,0,0,0.05,40.900000000000006,0)" xlink:href="#aV"/><use transform="matrix(0.05,0,0,0.05,45.900000000000006,0)" xlink:href="#aQ"/></g><path d="M115-194c55 1 70 41 70 98S169 2 115 4C84 4 66-9 55-30l1 105H24l-1-265h31l2 30c10-21 28-34 59-34zm-8 174c40 0 45-34 45-75s-6-73-45-74c-42 0-51 32-51 76 0 43 10 73 51 73" id="bb"/><path d="M85-194c31 0 48 13 60 33l-1-100h32l1 261h-30c-2-10 0-23-3-31C134-8 116 4 85 4 32 4 16-35 15-94c0-66 23-100 70-100zm9 24c-40 0-46 34-46 75 0 40 6 74 45 74 42 0 51-32 51-76 0-42-9-74-50-73" id="bc"/><g id="x"><use transform="matrix(0.05,0,0,0.05,0,0)" xlink:href="#bb"/><use transform="matrix(0.05,0,0,0.05,10,0)" xlink:href="#aP"/><use transform="matrix(0.05,0,0,0.05,15.949999999999998,0)" xlink:href="#aO"/><use transform="matrix(0.05,0,0,0.05,25.950000000000003,0)" xlink:href="#bc"/><use transform="matrix(0.05,0,0,0.05,35.95,0)" xlink:href="#aY"/><use transform="matrix(0.05,0,0,0.05,39.900000000000006,0)" xlink:href="#aR"/><use transform="matrix(0.05,0,0,0.05,48.900000000000006,0)" xlink:href="#aV"/><use transform="matrix(0.05,0,0,0.05,53.900000000000006,0)" xlink:href="#aY"/><use transform="matrix(0.05,0,0,0.05,57.85,0)" xlink:href="#aS"/><use transform="matrix(0.05,0,0,0.05,67.85000000000001,0)" xlink:href="#aU"/></g><path d="M101-234c-31-9-42 10-38 44h38v23H63V0H32v-167H5v-23h27c-7-52 17-82 69-68v24" id="bd"/><g id="y"><use transform="matrix(0.05,0,0,0.05,0,0)" xlink:href="#bd"/><use transform="matrix(0.05,0,0,0.05,5,0)" xlink:href="#aS"/><use transform="matrix(0.05,0,0,0.05,15,0)" xlink:href="#aP"/></g><path d="M115-194c53 0 69 39 70 98 0 66-23 100-70 100C84 3 66-7 56-30L54 0H23l1-261h32v101c10-23 28-34 59-34zm-8 174c40 0 45-34 45-75 0-40-5-75-45-74-42 0-51 32-51 76 0 43 10 73 51 73" id="be"/><g id="z"><use transform="matrix(0.05,0,0,0.05,0,0)" xlink:href="#aW"/><use transform="matrix(0.05,0,0,0.05,9,0)" xlink:href="#aN"/><use transform="matrix(0.05,0,0,0.05,19,0)" xlink:href="#be"/><use transform="matrix(0.05,0,0,0.05,29,0)" xlink:href="#aP"/><use transform="matrix(0.05,0,0,0.05,34.95,0)" xlink:href="#aO"/><use transform="matrix(0.05,0,0,0.05,44.95,0)" xlink:href="#bc"/><use transform="matrix(0.05,0,0,0.05,54.95,0)" xlink:href="#bc"/><use transform="matrix(0.05,0,0,0.05,64.95,0)" xlink:href="#aY"/><use transform="matrix(0.05,0,0,0.05,68.9,0)" xlink:href="#aV"/></g><path d="M30-248c87 1 191-15 191 75 0 78-77 80-158 76V0H30v-248zm33 125c57 0 124 11 124-50 0-59-68-47-124-48v98" id="bf"/><path d="M177-190C167-65 218 103 67 71c-23-6-38-20-44-43l32-5c15 47 100 32 89-28v-30C133-14 115 1 83 1 29 1 15-40 15-95c0-56 16-97 71-98 29-1 48 16 59 35 1-10 0-23 2-32h30zM94-22c36 0 50-32 50-73 0-42-14-75-50-75-39 0-46 34-46 75s6 73 46 73" id="bg"/><path d="M185-189c-5-48-123-54-124 2 14 75 158 14 163 119 3 78-121 87-175 55-17-10-28-26-33-46l33-7c5 56 141 63 141-1 0-78-155-14-162-118-5-82 145-84 179-34 5 7 8 16 11 25" id="bh"/><g id="A"><use transform="matrix(0.05,0,0,0.05,0,0)" xlink:href="#bf"/><use transform="matrix(0.05,0,0,0.05,12,0)" xlink:href="#aS"/><use transform="matrix(0.05,0,0,0.05,22,0)" xlink:href="#aW"/><use transform="matrix(0.05,0,0,0.05,31,0)" xlink:href="#aV"/><use transform="matrix(0.05,0,0,0.05,36,0)" xlink:href="#bg"/><use transform="matrix(0.05,0,0,0.05,46,0)" xlink:href="#aP"/><use transform="matrix(0.05,0,0,0.05,51.95,0)" xlink:href="#aO"/><use transform="matrix(0.05,0,0,0.05,61.95,0)" xlink:href="#bh"/></g><path d="M233-177c-1 41-23 64-60 70L243 0h-38l-65-103H63V0H30v-248c88 3 205-21 203 71zM63-129c60-2 137 13 137-47 0-61-80-42-137-45v92" id="bi"/><g id="B"><use transform="matrix(0.05,0,0,0.05,0,0)" xlink:href="#bi"/><use transform="matrix(0.05,0,0,0.05,12.950000000000001,0)" xlink:href="#aO"/><use transform="matrix(0.05,0,0,0.05,22.950000000000003,0)" xlink:href="#bc"/><use transform="matrix(0.05,0,0,0.05,32.95,0)" xlink:href="#bc"/><use transform="matrix(0.05,0,0,0.05,42.95,0)" xlink:href="#aY"/><use transform="matrix(0.05,0,0,0.05,46.900000000000006,0)" xlink:href="#aV"/></g><path d="M205 0l-28-72H64L36 0H1l101-248h38L239 0h-34zm-38-99l-47-123c-12 45-31 82-46 123h93" id="bj"/><path d="M33 0v-248h34V0H33" id="bk"/><g id="C"><use transform="matrix(0.05,0,0,0.05,0,0)" xlink:href="#bj"/><use transform="matrix(0.05,0,0,0.05,12,0)" xlink:href="#bf"/><use transform="matrix(0.05,0,0,0.05,24,0)" xlink:href="#bk"/></g><path d="M1222-777c17 480-206 763-650 777H169v-1456h411c408 9 627 269 642 679zm-190 4c3-312-149-522-447-525H361v1141h202c308 0 473-209 469-531v-85" id="bl"/><path d="M491 20c-241-1-355-148-355-398v-704h185v699c0 164 67 246 200 246 141 0 235-53 282-158v-787h185V0H812l-4-107C736-22 630 20 491 20" id="bm"/><g id="D"><use transform="matrix(0.0087890625,0,0,0.0087890625,0,0)" xlink:href="#bl"/><use transform="matrix(0.0087890625,0,0,0.0087890625,11.8037109375,0)" xlink:href="#ar"/><use transform="matrix(0.0087890625,0,0,0.0087890625,21.5947265625,0)" xlink:href="#aB"/><use transform="matrix(0.0087890625,0,0,0.0087890625,27.474609375,0)" xlink:href="#ar"/><use transform="matrix(0.0087890625,0,0,0.0087890625,37.265625,0)" xlink:href="#aG"/><use transform="matrix(0.0087890625,0,0,0.0087890625,47.3642578125,0)" xlink:href="#ar"/><use transform="matrix(0.0087890625,0,0,0.0087890625,57.1552734375,0)" xlink:href="#aH"/><use transform="matrix(0.0087890625,0,0,0.0087890625,66.4365234375,0)" xlink:href="#aE"/><use transform="matrix(0.0087890625,0,0,0.0087890625,75.97265625,0)" xlink:href="#at"/><use transform="matrix(0.0087890625,0,0,0.0087890625,87.1787109375,0)" xlink:href="#bm"/><use transform="matrix(0.0087890625,0,0,0.0087890625,97.1015625,0)" xlink:href="#ax"/><use transform="matrix(0.0087890625,0,0,0.0087890625,101.4697265625,0)" xlink:href="#au"/><use transform="matrix(0.0087890625,0,0,0.0087890625,105.837890625,0)" xlink:href="#as"/><use transform="matrix(0.0087890625,0,0,0.0087890625,115.9892578125,0)" xlink:href="#aE"/><use transform="matrix(0.0087890625,0,0,0.0087890625,125.525390625,0)" xlink:href="#aD"/></g><path d="M141-36C126-15 110 5 73 4 37 3 15-17 15-53c-1-64 63-63 125-63 3-35-9-54-41-54-24 1-41 7-42 31l-33-3c5-37 33-52 76-52 45 0 72 20 72 64v82c-1 20 7 32 28 27v20c-31 9-61-2-59-35zM48-53c0 20 12 33 32 33 41-3 63-29 60-74-43 2-92-5-92 41" id="bn"/><path d="M24 0v-261h32V0H24" id="bo"/><g id="E"><use transform="matrix(0.05,0,0,0.05,0,0)" xlink:href="#bf"/><use transform="matrix(0.05,0,0,0.05,12,0)" xlink:href="#aO"/><use transform="matrix(0.05,0,0,0.05,22,0)" xlink:href="#aP"/><use transform="matrix(0.05,0,0,0.05,27.950000000000003,0)" xlink:href="#aY"/><use transform="matrix(0.05,0,0,0.05,31.899999999999995,0)" xlink:href="#aS"/><use transform="matrix(0.05,0,0,0.05,41.9,0)" xlink:href="#bc"/><use transform="matrix(0.05,0,0,0.05,51.900000000000006,0)" xlink:href="#aY"/><use transform="matrix(0.05,0,0,0.05,55.85,0)" xlink:href="#aR"/><use transform="matrix(0.05,0,0,0.05,64.85,0)" xlink:href="#bn"/><use transform="matrix(0.05,0,0,0.05,74.85,0)" xlink:href="#bo"/><use transform="matrix(0.05,0,0,0.05,78.8,0)" xlink:href="#bo"/><use transform="matrix(0.05,0,0,0.05,82.75,0)" xlink:href="#aQ"/></g><g id="F"><use transform="matrix(0.05,0,0,0.05,0,0)" xlink:href="#aP"/><use transform="matrix(0.05,0,0,0.05,5.95,0)" xlink:href="#aO"/><use transform="matrix(0.05,0,0,0.05,15.949999999999998,0)" xlink:href="#bn"/><use transform="matrix(0.05,0,0,0.05,25.950000000000003,0)" xlink:href="#bc"/></g><g id="G"><use transform="matrix(0.05,0,0,0.05,0,0)" xlink:href="#aR"/><use transform="matrix(0.05,0,0,0.05,9,0)" xlink:href="#aS"/><use transform="matrix(0.05,0,0,0.05,19,0)" xlink:href="#aT"/><use transform="matrix(0.05,0,0,0.05,33.95,0)" xlink:href="#aT"/><use transform="matrix(0.05,0,0,0.05,48.900000000000006,0)" xlink:href="#aO"/><use transform="matrix(0.05,0,0,0.05,58.900000000000006,0)" xlink:href="#aU"/><use transform="matrix(0.05,0,0,0.05,68.9,0)" xlink:href="#aV"/><use transform="matrix(0.05,0,0,0.05,73.9,0)" xlink:href="#aW"/></g><g id="H"><use transform="matrix(0.05,0,0,0.05,0,0)" xlink:href="#bd"/><use transform="matrix(0.05,0,0,0.05,5,0)" xlink:href="#aP"/><use transform="matrix(0.05,0,0,0.05,10.95,0)" xlink:href="#aS"/><use transform="matrix(0.05,0,0,0.05,20.95,0)" xlink:href="#aT"/></g><g id="I"><use transform="matrix(0.05,0,0,0.05,0,0)" xlink:href="#aW"/><use transform="matrix(0.05,0,0,0.05,9,0)" xlink:href="#aO"/><use transform="matrix(0.05,0,0,0.05,19,0)" xlink:href="#bo"/><use transform="matrix(0.05,0,0,0.05,22.95,0)" xlink:href="#aO"/><use transform="matrix(0.05,0,0,0.05,32.95,0)" xlink:href="#aR"/><use transform="matrix(0.05,0,0,0.05,41.95,0)" xlink:href="#aV"/><use transform="matrix(0.05,0,0,0.05,46.95,0)" xlink:href="#aO"/><use transform="matrix(0.05,0,0,0.05,56.95,0)" xlink:href="#bc"/></g><g id="J"><use transform="matrix(0.05,0,0,0.05,0,0)" xlink:href="#aW"/><use transform="matrix(0.05,0,0,0.05,9,0)" xlink:href="#aN"/><use transform="matrix(0.05,0,0,0.05,19,0)" xlink:href="#be"/><use transform="matrix(0.05,0,0,0.05,29,0)" xlink:href="#aP"/><use transform="matrix(0.05,0,0,0.05,34.95,0)" xlink:href="#aO"/><use transform="matrix(0.05,0,0,0.05,44.95,0)" xlink:href="#bc"/><use transform="matrix(0.05,0,0,0.05,54.95,0)" xlink:href="#bc"/><use transform="matrix(0.05,0,0,0.05,64.95,0)" xlink:href="#aY"/><use transform="matrix(0.05,0,0,0.05,68.9,0)" xlink:href="#aV"/><use transform="matrix(0.05,0,0,0.05,73.9,0)" xlink:href="#aW"/></g><path d="M232-93c-1 65-40 97-104 97C67 4 28-28 28-90v-158h33c8 89-33 224 67 224 102 0 64-133 71-224h33v155" id="bp"/><g id="K"><use transform="matrix(0.05,0,0,0.05,0,0)" xlink:href="#bp"/><use transform="matrix(0.05,0,0,0.05,12.950000000000001,0)" xlink:href="#bb"/><use transform="matrix(0.05,0,0,0.05,22.950000000000003,0)" xlink:href="#bc"/><use transform="matrix(0.05,0,0,0.05,32.95,0)" xlink:href="#bn"/><use transform="matrix(0.05,0,0,0.05,42.95,0)" xlink:href="#aV"/><use transform="matrix(0.05,0,0,0.05,47.95,0)" xlink:href="#aO"/></g><g id="L"><use transform="matrix(0.05,0,0,0.05,0,0)" xlink:href="#aV"/><use transform="matrix(0.05,0,0,0.05,5,0)" xlink:href="#aS"/></g><path d="M30-248c118-7 216 8 213 122C240-48 200 0 122 0H30v-248zM63-27c89 8 146-16 146-99s-60-101-146-95v194" id="bq"/><path d="M160-131c35 5 61 23 61 61C221 17 115-2 30 0v-248c76 3 177-17 177 60 0 33-19 50-47 57zm-97-11c50-1 110 9 110-42 0-47-63-36-110-37v79zm0 115c55-2 124 14 124-45 0-56-70-42-124-44v89" id="br"/><g id="M"><use transform="matrix(0.05,0,0,0.05,0,0)" xlink:href="#bq"/><use transform="matrix(0.05,0,0,0.05,12.950000000000001,0)" xlink:href="#br"/></g><g id="N"><use transform="matrix(0.05,0,0,0.05,0,0)" xlink:href="#bi"/><use transform="matrix(0.05,0,0,0.05,12.950000000000001,0)" xlink:href="#aO"/><use transform="matrix(0.05,0,0,0.05,22.950000000000003,0)" xlink:href="#bn"/><use transform="matrix(0.05,0,0,0.05,32.95,0)" xlink:href="#bc"/></g><g id="O"><use transform="matrix(0.05,0,0,0.05,0,0)" xlink:href="#aN"/><use transform="matrix(0.05,0,0,0.05,10,0)" xlink:href="#aU"/><use transform="matrix(0.05,0,0,0.05,20,0)" xlink:href="#bb"/><use transform="matrix(0.05,0,0,0.05,30,0)" xlink:href="#aP"/><use transform="matrix(0.05,0,0,0.05,35.95,0)" xlink:href="#aS"/><use transform="matrix(0.05,0,0,0.05,45.95,0)" xlink:href="#aR"/><use transform="matrix(0.05,0,0,0.05,54.95,0)" xlink:href="#aO"/><use transform="matrix(0.05,0,0,0.05,64.95,0)" xlink:href="#aW"/><use transform="matrix(0.05,0,0,0.05,73.95,0)" xlink:href="#aW"/><use transform="matrix(0.05,0,0,0.05,82.95,0)" xlink:href="#aO"/><use transform="matrix(0.05,0,0,0.05,92.95,0)" xlink:href="#bc"/></g><g id="P"><use transform="matrix(0.05,0,0,0.05,0,0)" xlink:href="#aR"/><use transform="matrix(0.05,0,0,0.05,9,0)" xlink:href="#aS"/><use transform="matrix(0.05,0,0,0.05,19,0)" xlink:href="#aT"/><use transform="matrix(0.05,0,0,0.05,33.95,0)" xlink:href="#bb"/><use transform="matrix(0.05,0,0,0.05,43.95,0)" xlink:href="#aN"/><use transform="matrix(0.05,0,0,0.05,53.95,0)" xlink:href="#aV"/><use transform="matrix(0.05,0,0,0.05,58.95,0)" xlink:href="#aO"/></g><g id="Q"><use transform="matrix(0.05,0,0,0.05,0,0)" xlink:href="#aV"/><use transform="matrix(0.05,0,0,0.05,5,0)" xlink:href="#aS"/><use transform="matrix(0.05,0,0,0.05,15,0)" xlink:href="#ba"/><use transform="matrix(0.05,0,0,0.05,24,0)" xlink:href="#aY"/><use transform="matrix(0.05,0,0,0.05,27.950000000000003,0)" xlink:href="#aR"/><use transform="matrix(0.05,0,0,0.05,36.95,0)" xlink:href="#aY"/><use transform="matrix(0.05,0,0,0.05,40.900000000000006,0)" xlink:href="#aV"/><use transform="matrix(0.05,0,0,0.05,45.900000000000006,0)" xlink:href="#aQ"/></g><g id="S"><use transform="matrix(0.05,0,0,0.05,0,0)" xlink:href="#bp"/><use transform="matrix(0.05,0,0,0.05,12.950000000000001,0)" xlink:href="#bb"/><use transform="matrix(0.05,0,0,0.05,22.950000000000003,0)" xlink:href="#bc"/><use transform="matrix(0.05,0,0,0.05,32.95,0)" xlink:href="#bn"/><use transform="matrix(0.05,0,0,0.05,42.95,0)" xlink:href="#aV"/><use transform="matrix(0.05,0,0,0.05,47.95,0)" xlink:href="#aO"/></g><g id="U"><use transform="matrix(0.05,0,0,0.05,0,0)" xlink:href="#bn"/><use transform="matrix(0.05,0,0,0.05,10,0)" xlink:href="#aU"/><use transform="matrix(0.05,0,0,0.05,20,0)" xlink:href="#bc"/></g><g id="V"><use transform="matrix(0.05,0,0,0.05,0,0)" xlink:href="#aR"/><use transform="matrix(0.05,0,0,0.05,9,0)" xlink:href="#aS"/><use transform="matrix(0.05,0,0,0.05,19,0)" xlink:href="#aU"/><use transform="matrix(0.05,0,0,0.05,29,0)" xlink:href="#bd"/><use transform="matrix(0.05,0,0,0.05,34,0)" xlink:href="#aY"/><use transform="matrix(0.05,0,0,0.05,37.95,0)" xlink:href="#bc"/><use transform="matrix(0.05,0,0,0.05,47.95,0)" xlink:href="#aO"/><use transform="matrix(0.05,0,0,0.05,57.95,0)" xlink:href="#aU"/><use transform="matrix(0.05,0,0,0.05,67.95,0)" xlink:href="#aR"/><use transform="matrix(0.05,0,0,0.05,76.95,0)" xlink:href="#aO"/></g><g id="W"><use transform="matrix(0.05,0,0,0.05,0,0)" xlink:href="#aW"/><use transform="matrix(0.05,0,0,0.05,9,0)" xlink:href="#aR"/><use transform="matrix(0.05,0,0,0.05,18,0)" xlink:href="#aS"/><use transform="matrix(0.05,0,0,0.05,28,0)" xlink:href="#aP"/><use transform="matrix(0.05,0,0,0.05,33.95,0)" xlink:href="#aO"/></g></defs></g></svg>